<svg width="33" height="32" viewBox="0 0 33 32" fill="none" xmlns="http://www.w3.org/2000/svg">
<path d="M16.5 32C25.3366 32 32.5 24.8366 32.5 16C32.5 7.16344 25.3366 0 16.5 0C7.66344 0 0.5 7.16344 0.5 16C0.5 24.8366 7.66344 32 16.5 32Z" fill="#419000"/>
<path d="M13.7016 22.5185C13.3063 22.5185 12.9109 22.3754 12.5988 22.0687L9.24893 18.7774C8.64554 18.1846 8.64554 17.2033 9.24893 16.6104C9.85233 16.0176 10.8511 16.0176 11.4544 16.6104L13.7016 18.8183L21.5457 11.1113C22.1491 10.5184 23.1479 10.5184 23.7512 11.1113C24.3546 11.7041 24.3546 12.6854 23.7512 13.2782L14.8043 22.0687C14.4922 22.3754 14.0969 22.5185 13.7016 22.5185Z" fill="white"/>
</svg>
