<svg width="29" height="31" viewBox="0 0 29 31" fill="none" xmlns="http://www.w3.org/2000/svg">
<g clip-path="url(#clip0_38_9447)">
<path d="M14.1497 23.237C10.3072 23.0433 7.25008 19.6591 7.25008 15.4999C7.25008 11.2245 10.5005 7.74992 14.5001 7.74992C18.3909 7.74992 21.5567 11.0178 21.738 15.1253L19.2005 14.3116C18.7051 12.0253 16.7838 10.3333 14.5001 10.3333C11.8297 10.3333 9.66675 12.6453 9.66675 15.4999C9.66675 17.9412 11.2497 19.9949 13.3884 20.5245L14.1497 23.237ZM26.5834 15.4999C26.5834 15.8874 26.5713 16.2749 26.5351 16.6624L24.1547 15.9003C24.1667 15.7712 24.1667 15.6291 24.1667 15.4999C24.1667 9.79075 19.8409 5.16659 14.5001 5.16659C9.15925 5.16659 4.83341 9.79075 4.83341 15.4999C4.83341 21.2091 9.15925 25.8333 14.5001 25.8333C14.6209 25.8333 14.7538 25.8333 14.8747 25.8203L15.5876 28.3649C15.2251 28.4037 14.8626 28.4166 14.5001 28.4166C7.83008 28.4166 2.41675 22.6299 2.41675 15.4999C2.41675 8.36992 7.83008 2.58325 14.5001 2.58325C21.1701 2.58325 26.5834 8.36992 26.5834 15.4999ZM22.028 21.0024L26.5834 19.3749L14.5001 15.4999L18.1251 28.4166L19.6476 23.547L24.8072 29.0624L27.1997 26.5049L22.028 21.0024Z" fill="#223B58"/>
</g>
<defs>
<clipPath id="clip0_38_9447">
<rect width="29" height="31" fill="white"/>
</clipPath>
</defs>
</svg>
