<svg width="70" height="72" viewBox="0 0 70 72" fill="none" xmlns="http://www.w3.org/2000/svg">
<g clip-path="url(#clip0_44_4549)">
<path d="M34.4163 53.97C25.2738 53.52 18 45.66 18 36C18 26.07 25.7337 18 35.25 18C44.5075 18 52.04 25.59 52.4712 35.13L46.4338 33.24C45.255 27.93 40.6838 24 35.25 24C28.8962 24 23.75 29.37 23.75 36C23.75 41.67 27.5163 46.44 32.605 47.67L34.4163 53.97ZM64 36C64 36.9 63.9712 37.8 63.885 38.7L58.2212 36.93C58.25 36.63 58.25 36.3 58.25 36C58.25 22.74 47.9575 12 35.25 12C22.5425 12 12.25 22.74 12.25 36C12.25 49.26 22.5425 60 35.25 60C35.5375 60 35.8538 60 36.1413 59.97L37.8375 65.88C36.975 65.97 36.1125 66 35.25 66C19.38 66 6.5 52.56 6.5 36C6.5 19.44 19.38 6 35.25 6C51.12 6 64 19.44 64 36ZM53.1612 48.78L64 45L35.25 36L43.875 66L47.4975 54.69L59.7738 67.5L65.4663 61.56L53.1612 48.78Z" fill="#567F40"/>
</g>
<defs>
<clipPath id="clip0_44_4549">
<rect width="69" height="72" fill="white" transform="translate(0.75)"/>
</clipPath>
</defs>
</svg>
