<svg width="24" height="26" viewBox="0 0 24 26" fill="none" xmlns="http://www.w3.org/2000/svg">
<g clip-path="url(#clip0_38_9081)">
<path d="M11.71 19.2396C8.53 19.0834 6 16.3542 6 13C6 9.55212 8.69 6.75004 12 6.75004C15.22 6.75004 17.84 9.38546 17.99 12.698L15.89 12.0417C15.48 10.198 13.89 8.83337 12 8.83337C9.79 8.83337 8 10.698 8 13C8 14.9688 9.31 16.625 11.08 17.0521L11.71 19.2396ZM22 13C22 13.3125 21.99 13.625 21.96 13.9375L19.99 13.323C20 13.2188 20 13.1042 20 13C20 8.39587 16.42 4.66671 12 4.66671C7.58 4.66671 4 8.39587 4 13C4 17.6042 7.58 21.3334 12 21.3334C12.1 21.3334 12.21 21.3334 12.31 21.323L12.9 23.375C12.6 23.4063 12.3 23.4167 12 23.4167C6.48 23.4167 2 18.75 2 13C2 7.25004 6.48 2.58337 12 2.58337C17.52 2.58337 22 7.25004 22 13ZM18.23 17.4375L22 16.125L12 13L15 23.4167L16.26 19.4896L20.53 23.9375L22.51 21.875L18.23 17.4375Z" fill="white"/>
</g>
<defs>
<clipPath id="clip0_38_9081">
<rect width="24" height="25" fill="white" transform="translate(0 0.5)"/>
</clipPath>
</defs>
</svg>
