<svg width="32" height="32" viewBox="0 0 32 32" fill="none" xmlns="http://www.w3.org/2000/svg">
<path d="M27.6667 10.9733V20.5067C27.6267 24.3067 26.5866 25.2667 22.6266 25.2667H10.04C6.01337 25.2667 5 24.2667 5 20.2933V10.9733C5 7.37333 5.84 6.21333 9 6.02667C9.32 6.01333 9.66671 6 10.04 6H22.6266C26.6533 6 27.6667 7 27.6667 10.9733Z" fill="white"/>
<path d="M11.6132 22.0134H9.31982C8.77316 22.0134 8.31982 21.5601 8.31982 21.0134C8.31982 20.4668 8.77316 20.0134 9.31982 20.0134H11.6132C12.1599 20.0134 12.6132 20.4668 12.6132 21.0134C12.6132 21.5601 12.1732 22.0134 11.6132 22.0134Z" fill="#1F354F"/>
<path d="M19.0666 22.0134H14.48C13.9333 22.0134 13.48 21.5601 13.48 21.0134C13.48 20.4668 13.9333 20.0134 14.48 20.0134H19.0666C19.6133 20.0134 20.0666 20.4668 20.0666 21.0134C20.0666 21.5601 19.6266 22.0134 19.0666 22.0134Z" fill="#1F354F"/>
<path d="M27.6667 13.0801H5V15.0801H27.6667V13.0801Z" fill="#1F354F"/>
</svg>
