<svg width="43" height="25" viewBox="0 0 43 25" fill="none" xmlns="http://www.w3.org/2000/svg">
<path d="M43 14.9741L38.9834 11.1317C36.5761 13.0447 39.3554 13.9986 37.4907 14.7254L43 20V14.9741ZM29.7028 4.42236C29.8741 4.01102 30.3844 3.88441 30.7092 4.07991L30.8071 4.13895C31.2483 4.4053 31.7457 4.69986 32.2848 4.71758L27.3585 0H22.1143L28.3991 6.01916C29.1582 5.76068 29.3932 5.17287 29.7028 4.42236ZM34.3907 10.3464C33.918 10.3464 33.6557 10.8909 33.6557 11.5765C33.6385 12.2719 33.9187 12.7987 34.399 12.7987C34.9059 12.7987 35.1333 12.2804 35.1333 11.5601C35.1333 10.8988 34.9319 10.3464 34.3907 10.3464ZM31.0161 9.30853C31.0161 8.63938 30.8154 8.09486 30.2728 8.09486C29.8008 8.09486 29.5391 8.63938 29.5391 9.31641C29.5213 10.0118 29.8008 10.5386 30.2824 10.5386C30.7893 10.5386 31.0161 10.0203 31.0161 9.30853Z" fill="#388A9E"/>
<path d="M36.7045 7.26954C35.4304 7.1112 34.6091 6.58041 34.0382 5.45023C32.8548 6.05154 31.8447 6.01821 30.7247 5.45023C30.1716 6.5522 29.3715 7.10992 28.0612 7.27082C28.3027 8.50806 27.9767 9.39335 27.0286 10.2229C27.963 11.0421 28.3068 11.9287 28.0599 13.1794C29.3183 13.3365 30.1484 13.8576 30.7234 15C31.8727 14.4166 32.8835 14.4122 34.0389 14.9994C34.5757 13.9352 35.3574 13.3454 36.7045 13.1788C36.4596 11.939 36.802 11.046 37.7385 10.2229C36.8197 9.41771 36.4555 8.53242 36.7045 7.26954ZM28.997 9.13629C28.997 8.07342 29.6061 7.47596 30.3728 7.47596C31.1558 7.47596 31.6687 8.04842 31.6687 9.05488C31.6687 10.1754 31.0514 10.7312 30.3203 10.7312C29.6061 10.7312 29.0059 10.1998 28.997 9.13629ZM31.0992 12.9813H30.2589L33.5928 7.46827H34.4318L31.0992 12.9813ZM34.4188 12.9403C33.7054 12.9403 33.1052 12.4082 33.0963 11.337C33.0963 10.2742 33.7054 9.6767 34.4714 9.6767C35.2544 9.6767 35.768 10.2492 35.768 11.2639C35.768 12.3839 35.15 12.9403 34.4188 12.9403ZM33.7436 4.13736C34.3806 3.76426 34.856 3.98158 34.9877 4.28864C35.5831 5.32715 35.4133 5.93166 37.4527 6.05475C38.8373 6.36758 37.9056 7.00607 37.9888 8.12727L43 12.8332V3.01551C43 1.35519 41.5649 0 39.7977 0H29.3415L33.7436 4.13736Z" fill="#4AB8D2"/>
<path d="M36.0662 14.9881C35.5523 15.3078 35.3494 15.8584 35.1088 16.4488C35.0721 16.5366 35.016 16.6155 34.9445 16.6799C34.8729 16.7443 34.7877 16.7927 34.6948 16.8217C34.6019 16.8506 34.5035 16.8594 34.4067 16.8473C34.3099 16.8353 34.217 16.8028 34.1346 16.7521C32.9353 16.2381 32.8245 15.604 30.9405 16.7567C30.8582 16.8058 30.7658 16.837 30.6699 16.8481C30.5739 16.8592 30.4766 16.85 30.3847 16.821C30.2928 16.792 30.2084 16.7441 30.1375 16.6804C30.0665 16.6167 30.0106 16.5388 29.9737 16.452L29.932 16.3509C29.3717 15.3776 29.541 14.7781 27.5482 14.6469C27.481 14.6313 27.1552 14.6848 26.9207 14.3749C26.5344 13.8641 27.2499 13.0734 26.9529 12.1725C26.6573 11.2788 25.5917 11.0263 25.5917 10.4176C25.5917 9.75615 26.6553 9.52782 26.9523 8.63995C27.3003 7.58768 26.3523 6.75917 27.1001 6.28229L20.6299 0H3.16117C2.32344 0.00172295 1.52051 0.325568 0.928083 0.900676C0.335652 1.47578 0.00195254 2.25532 0 3.06873V21.8791C0 23.6013 1.44722 25 3.22097 25H39.8455C40.6819 24.9995 41.4838 24.6767 42.0753 24.1026C42.6667 23.5284 42.9993 22.7498 43 21.9378V21.7199L36.0662 14.9881ZM15.8274 21.1028H4.99069C4.81383 21.1028 4.64422 21.0345 4.51916 20.9131C4.39411 20.7917 4.32385 20.627 4.32385 20.4553C4.32385 20.2836 4.39411 20.1189 4.51916 19.9975C4.64422 19.876 4.81383 19.8078 4.99069 19.8078H15.828C16.0049 19.8078 16.1745 19.876 16.2996 19.9975C16.4246 20.1189 16.4949 20.2836 16.4949 20.4553C16.4949 20.627 16.4246 20.7917 16.2996 20.9131C16.1745 21.0345 16.0042 21.1028 15.8274 21.1028ZM20.3854 17.488H4.99069C4.81374 17.488 4.64404 17.4197 4.51893 17.2983C4.39381 17.1768 4.32352 17.012 4.32352 16.8402C4.32352 16.6684 4.39381 16.5036 4.51893 16.3821C4.64404 16.2606 4.81374 16.1924 4.99069 16.1924H20.3854C20.5623 16.1924 20.732 16.2606 20.8571 16.3821C20.9822 16.5036 21.0525 16.6684 21.0525 16.8402C21.0525 17.012 20.9822 17.1768 20.8571 17.2983C20.732 17.4197 20.5623 17.488 20.3854 17.488Z" fill="#4AB8D2"/>
</svg>
