<svg width="14" height="14" viewBox="0 0 14 14" fill="none" xmlns="http://www.w3.org/2000/svg">
<path d="M8.9873 6.99767L13.2998 2.68517C13.8436 2.14142 13.8436 1.24142 13.2998 0.697668C12.7561 0.153918 11.8561 0.153918 11.3123 0.697668L6.9998 5.01017L2.6873 0.697668C2.14355 0.153918 1.24355 0.153918 0.699805 0.697668C0.156055 1.24142 0.156055 2.14142 0.699805 2.68517L5.0123 6.99767L0.699805 11.3102C0.156055 11.8539 0.156055 12.7539 0.699805 13.2977C0.981055 13.5789 1.3373 13.7102 1.69355 13.7102C2.0498 13.7102 2.40605 13.5789 2.6873 13.2977L6.9998 8.98517L11.3123 13.2977C11.5936 13.5789 11.9498 13.7102 12.3061 13.7102C12.6623 13.7102 13.0186 13.5789 13.2998 13.2977C13.8436 12.7539 13.8436 11.8539 13.2998 11.3102L8.9873 6.99767Z" fill="#1A404A"/>
</svg>
