<svg width="32" height="32" viewBox="0 0 32 32" fill="none" xmlns="http://www.w3.org/2000/svg">
<path d="M5.31999 19.5466L3.29334 17.52C2.46667 16.6933 2.46667 15.3333 3.29334 14.5066L5.31999 12.4799C5.66666 12.1333 5.94666 11.4533 5.94666 10.9733V8.10665C5.94666 6.93332 6.90667 5.97327 8.08 5.97327H10.9467C11.4267 5.97327 12.1067 5.69331 12.4533 5.34664L14.48 3.31995C15.3067 2.49328 16.6667 2.49328 17.4933 3.31995L19.52 5.34664C19.8667 5.69331 20.5467 5.97327 21.0267 5.97327H23.8934C25.0667 5.97327 26.0267 6.93332 26.0267 8.10665V10.9733C26.0267 11.4533 26.3067 12.1333 26.6533 12.4799L28.68 14.5066C29.5067 15.3333 29.5067 16.6933 28.68 17.52L26.6533 19.5466C26.3067 19.8933 26.0267 20.5733 26.0267 21.0533V23.92C26.0267 25.0933 25.0667 26.0533 23.8934 26.0533H21.0267C20.5467 26.0533 19.8667 26.3333 19.52 26.68L17.4933 28.7067C16.6667 29.5333 15.3067 29.5333 14.48 28.7067L12.4533 26.68C12.1067 26.3333 11.4267 26.0533 10.9467 26.0533H8.08C6.90667 26.0533 5.94666 25.0933 5.94666 23.92V21.0533C5.94666 20.5599 5.66666 19.8799 5.31999 19.5466Z" fill="white"/>
<path d="M20 21.3333C19.2533 21.3333 18.6533 20.7333 18.6533 20C18.6533 19.2666 19.2533 18.6666 19.9867 18.6666C20.72 18.6666 21.32 19.2666 21.32 20C21.32 20.7333 20.7333 21.3333 20 21.3333Z" fill="#223B58"/>
<path d="M12.0132 13.3333C11.2665 13.3333 10.6665 12.7333 10.6665 12C10.6665 11.2666 11.2665 10.6666 11.9998 10.6666C12.7332 10.6666 13.3332 11.2666 13.3332 12C13.3332 12.7333 12.7465 13.3333 12.0132 13.3333Z" fill="#223B58"/>
<path d="M12.0001 21C11.7467 21 11.4934 20.9067 11.2934 20.7067C10.9068 20.32 10.9068 19.68 11.2934 19.2933L19.2934 11.2933C19.6801 10.9066 20.3201 10.9066 20.7067 11.2933C21.0934 11.68 21.0934 12.32 20.7067 12.7067L12.7067 20.7067C12.5067 20.9067 12.2534 21 12.0001 21Z" fill="#223B58"/>
</svg>
