<svg width="16" height="15" viewBox="0 0 16 15" fill="none" xmlns="http://www.w3.org/2000/svg">
<path d="M14.4754 3.93563C14.4857 3.36312 14.1047 2.8389 13.5567 2.67296C12.568 2.37357 11.8054 1.8311 11.2012 0.964715C10.8735 0.494842 10.2572 0.293017 9.71547 0.479214C8.70405 0.826834 7.75824 0.815161 6.78306 0.479888C6.24073 0.29343 5.62396 0.496453 5.29693 0.967559C4.70542 1.81967 3.95045 2.37163 2.94395 2.67593C2.39595 2.84161 2.01428 3.36509 2.02556 3.93747C2.04644 4.99697 1.75236 5.88507 1.12519 6.70651C0.773203 7.16751 0.772837 7.82591 1.12433 8.28729C1.74632 9.10374 2.04647 9.99395 2.02479 11.0628C2.01318 11.6352 2.39387 12.1593 2.94168 12.3255C3.92184 12.623 4.68665 13.162 5.29396 14.034C5.62157 14.5044 6.23827 14.7068 6.78029 14.5203C7.77292 14.1787 8.71972 14.1768 9.71586 14.5193C10.2578 14.7057 10.8743 14.5035 11.2019 14.0333C11.7821 13.2004 12.5312 12.637 13.5561 12.325C14.1043 12.1582 14.4854 11.6333 14.4751 11.0604C14.456 9.998 14.7571 9.1059 15.3808 8.28643C15.7315 7.82552 15.7309 7.16817 15.3797 6.70759C14.7639 5.89998 14.456 5.01091 14.4754 3.93563ZM3.28639 5.80151C3.28639 4.14351 4.17939 3.21151 5.30339 3.21151C6.45139 3.21151 7.20339 4.10451 7.20339 5.67451C7.20339 7.42251 6.29839 8.28951 5.22639 8.28951C4.17939 8.28951 3.29939 7.46051 3.28639 5.80151ZM6.52234 11.5285C6.42718 11.696 6.24938 11.7995 6.05673 11.7995C5.6461 11.7995 5.38825 11.3564 5.59116 10.9994L9.87064 3.47003C9.96568 3.30281 10.1432 3.19951 10.3355 3.19951C10.7456 3.19951 11.003 3.64194 10.8005 3.99843L6.52234 11.5285ZM11.2354 11.7355C10.1894 11.7355 9.30939 10.9055 9.29639 9.23451C9.29639 7.57651 10.1894 6.64451 11.3124 6.64451C12.4604 6.64451 13.2134 7.53751 13.2134 9.12051C13.2134 10.8675 12.3074 11.7355 11.2354 11.7355Z" fill="black"/>
</svg>
