<svg width="30" height="30" viewBox="0 0 30 30" fill="none" xmlns="http://www.w3.org/2000/svg">
<path opacity="0.4" d="M25.625 12.7375H22.0125C19.05 12.7375 16.6375 10.325 16.6375 7.3625V3.75C16.6375 3.0625 16.075 2.5 15.3875 2.5H10.0875C6.2375 2.5 3.125 5 3.125 9.4625V20.5375C3.125 25 6.2375 27.5 10.0875 27.5H19.9125C23.7625 27.5 26.875 25 26.875 20.5375V13.9875C26.875 13.3 26.3125 12.7375 25.625 12.7375Z" fill="#223B58"/>
<path d="M19.75 2.76249C19.2375 2.24999 18.35 2.59999 18.35 3.31249V7.67499C18.35 9.49999 19.9 11.0125 21.7875 11.0125C22.975 11.025 24.625 11.025 26.0375 11.025C26.75 11.025 27.125 10.1875 26.625 9.68749C24.825 7.87499 21.6 4.61249 19.75 2.76249Z" fill="#223B58"/>
<path d="M14.4125 15.5875L11.9125 13.0875C11.9 13.075 11.8875 13.075 11.8875 13.0625C11.8125 12.9875 11.7125 12.925 11.6125 12.875C11.6 12.875 11.6 12.875 11.5875 12.875C11.4875 12.8375 11.3875 12.825 11.2875 12.8125C11.25 12.8125 11.225 12.8125 11.1875 12.8125C11.1125 12.8125 11.025 12.8375 10.95 12.8625C10.9125 12.875 10.8875 12.8875 10.8625 12.9C10.7625 12.95 10.6625 13 10.5875 13.0875L8.08755 15.5875C7.72505 15.95 7.72505 16.55 8.08755 16.9125C8.45005 17.275 9.05005 17.275 9.41255 16.9125L10.3125 16.0125V21.25C10.3125 21.7625 10.7375 22.1875 11.25 22.1875C11.7625 22.1875 12.1875 21.7625 12.1875 21.25V16.0125L13.0875 16.9125C13.275 17.1 13.5125 17.1875 13.75 17.1875C13.9875 17.1875 14.225 17.1 14.4125 16.9125C14.775 16.55 14.775 15.95 14.4125 15.5875Z" fill="#223B58"/>
</svg>
