<svg width="25" height="24" viewBox="0 0 25 24" fill="none" xmlns="http://www.w3.org/2000/svg">
<path opacity="0.4" d="M21.5996 22H3.59961C3.18961 22 2.84961 21.66 2.84961 21.25C2.84961 20.84 3.18961 20.5 3.59961 20.5H21.5996C22.0096 20.5 22.3496 20.84 22.3496 21.25C22.3496 21.66 22.0096 22 21.5996 22Z" fill="#223B58"/>
<path opacity="0.4" d="M19.6197 3.48004C17.6797 1.54004 15.7797 1.49004 13.7897 3.48004L12.5797 4.69004C12.4797 4.79004 12.4397 4.95004 12.4797 5.09004C13.2397 7.74004 15.3597 9.86003 18.0097 10.62C18.0497 10.63 18.0897 10.64 18.1297 10.64C18.2397 10.64 18.3397 10.6 18.4197 10.52L19.6197 9.31004C20.6097 8.33004 21.0897 7.38004 21.0897 6.42004C21.0997 5.43004 20.6197 4.47004 19.6197 3.48004Z" fill="#223B58"/>
<path d="M16.2094 11.53C15.9194 11.39 15.6394 11.25 15.3694 11.09C15.1494 10.96 14.9394 10.82 14.7294 10.67C14.5594 10.56 14.3594 10.4 14.1694 10.24C14.1494 10.23 14.0794 10.17 13.9994 10.09C13.6694 9.81005 13.2994 9.45005 12.9694 9.05005C12.9394 9.03005 12.8894 8.96005 12.8194 8.87005C12.7194 8.75005 12.5494 8.55005 12.3994 8.32005C12.2794 8.17005 12.1394 7.95005 12.0094 7.73005C11.8494 7.46005 11.7094 7.19005 11.5694 6.91005C11.4294 6.61005 11.3194 6.32005 11.2194 6.05005L4.93944 12.33C4.80944 12.46 4.68944 12.71 4.65944 12.88L4.11944 16.71C4.01944 17.39 4.20944 18.03 4.62944 18.46C4.98944 18.81 5.48944 19 6.02944 19C6.14944 19 6.26944 18.99 6.38944 18.97L10.2294 18.43C10.4094 18.4 10.6594 18.28 10.7794 18.15L17.0594 11.87C16.7794 11.77 16.5094 11.66 16.2094 11.53Z" fill="#223B58"/>
</svg>
