<svg width="58" height="55" viewBox="0 0 58 55" fill="none" xmlns="http://www.w3.org/2000/svg">
<path d="M5.74967 54.25C4.32884 54.25 3.11252 53.7441 2.10072 52.7323C1.08891 51.7205 0.583008 50.5042 0.583008 49.0833V18.0833C0.583008 17.3514 0.830577 16.7378 1.32572 16.2427C1.82086 15.7476 2.4344 15.5 3.16634 15.5C3.89829 15.5 4.51183 15.7476 5.00697 16.2427C5.5021 16.7378 5.74967 17.3514 5.74967 18.0833V49.0833H41.9163C42.6483 49.0833 43.2618 49.3309 43.757 49.826C44.2521 50.3212 44.4997 50.9347 44.4997 51.6667C44.4997 52.3986 44.2521 53.0121 43.757 53.5073C43.2618 54.0024 42.6483 54.25 41.9163 54.25H5.74967ZM16.083 43.9167C14.6622 43.9167 13.4459 43.4108 12.434 42.399C11.4222 41.3871 10.9163 40.1708 10.9163 38.75V16.7917C10.9163 15.8875 11.1209 15.0264 11.5299 14.2083C11.9389 13.3903 12.5525 12.7444 13.3705 12.2708L34.1663 0L40.4955 3.74583L36.6205 7.49167L34.1663 6.07083L16.5997 16.4042L34.1663 26.7375L51.733 16.4042L48.2455 14.3375L51.9913 10.5917L54.9622 12.2708C55.7802 12.7444 56.3938 13.3903 56.8028 14.2083C57.2118 15.0264 57.4163 15.8875 57.4163 16.7917V38.75C57.4163 40.1708 56.9104 41.3871 55.8986 42.399C54.8868 43.4108 53.6705 43.9167 52.2497 43.9167H16.083ZM33.7788 16.0167L43.983 5.8125C44.4566 5.33889 45.0594 5.10208 45.7913 5.10208C46.5233 5.10208 47.1261 5.33889 47.5997 5.8125C48.0733 6.28611 48.3101 6.88889 48.3101 7.62083C48.3101 8.35278 48.0733 8.95555 47.5997 9.42917L35.5872 21.4417C35.0705 21.9583 34.4677 22.2167 33.7788 22.2167C33.09 22.2167 32.4872 21.9583 31.9705 21.4417L28.3538 17.825C27.8802 17.3514 27.6434 16.7486 27.6434 16.0167C27.6434 15.2847 27.8802 14.6819 28.3538 14.2083C28.8275 13.7347 29.4302 13.4979 30.1622 13.4979C30.8941 13.4979 31.4969 13.7347 31.9705 14.2083L33.7788 16.0167Z" fill="#87C752"/>
</svg>
