<svg width="73" height="72" viewBox="0 0 73 72" fill="none" xmlns="http://www.w3.org/2000/svg">
<g clip-path="url(#clip0_44_4563)">
<path d="M13.4852 46.2263C13.3952 45.5063 13.0352 44.8651 12.4727 44.4151C11.9889 44.0326 11.3927 43.8301 10.7852 43.8301C9.94144 43.8301 9.16519 44.2126 8.64769 44.8651L6.51019 47.5876C6.06019 48.1613 5.85769 48.8701 5.94769 49.6013C6.03769 50.3213 6.39769 50.9626 6.97144 51.4238C7.44394 51.7951 8.04019 51.9976 8.63644 51.9976C9.48019 51.9976 10.2564 51.6151 10.7852 50.9626L12.9227 48.2401C13.3727 47.6663 13.5639 46.9463 13.4852 46.2263ZM21.7314 52.9763C22.3614 52.1776 22.6539 51.1876 22.5302 50.1751C22.4064 49.1626 21.9002 48.2513 21.1014 47.6213C20.4152 47.0926 19.6052 46.8113 18.7502 46.8113C18.6039 46.8113 18.4577 46.8226 18.3002 46.8451C17.2989 46.9688 16.3877 47.4751 15.7577 48.2738L13.0127 51.7726C12.3714 52.5713 12.0902 53.5726 12.2139 54.5738C12.3377 55.5751 12.8439 56.4863 13.6539 57.1276C14.3402 57.6563 15.1502 57.9376 15.9939 57.9376C16.1402 57.9376 16.2977 57.9263 16.4439 57.9151C17.4452 57.7913 18.3564 57.2851 18.9864 56.4863L21.4389 53.3701L21.7314 52.9763ZM28.5152 56.1263C28.4139 55.3501 28.0202 54.6526 27.4127 54.1688C26.8839 53.7526 26.2652 53.5388 25.6014 53.5388C25.4664 53.5388 25.3539 53.5388 25.2414 53.5613C24.4539 53.6626 23.7564 54.0451 23.2727 54.6638L21.0002 57.5663C20.5164 58.1851 20.3027 58.9501 20.3927 59.7263C20.4714 60.5138 20.8652 61.2113 21.4952 61.7176C22.0014 62.1226 22.6427 62.3476 23.3064 62.3476C23.4302 62.3476 23.5539 62.3363 23.6664 62.3251C24.4314 62.2463 25.1627 61.8413 25.6577 61.2113L25.9614 60.8176H25.9727L27.9189 58.3201C28.3914 57.6788 28.6052 56.9138 28.5152 56.1263ZM32.5539 59.3213C32.1939 59.0401 31.7552 58.8826 31.2939 58.8826C31.2264 58.8826 31.1252 58.8826 31.0577 58.8938C30.5064 58.9501 30.0002 59.2313 29.6739 59.6926L27.9302 61.8976C27.5814 62.3363 27.4352 62.8763 27.5139 63.3826C27.5702 63.9338 27.8514 64.4401 28.2677 64.7326C28.6277 65.0251 29.0777 65.1826 29.5502 65.1826C29.6289 65.1826 29.6964 65.1826 29.7977 65.1713C30.3489 65.0926 30.8327 64.8113 31.1364 64.4063L32.9027 62.1676C33.2402 61.7513 33.3977 61.2226 33.3302 60.6826C33.2514 60.1538 32.9702 59.6588 32.5539 59.3213Z" fill="#567F40"/>
<path d="M72.1313 29.9925L65.55 17.9775C63.3563 13.9838 59.1488 11.5088 54.5475 11.5088C54.2888 11.5088 54.0413 11.52 53.7825 11.5313C46.6838 11.9925 40.305 14.355 40.26 14.3775C40.1363 14.4225 40.0013 14.4451 39.8775 14.4451C39.7088 14.4451 39.5513 14.4113 39.3825 14.3213L23.16 6.50255C22.5188 6.18755 21.7988 6.0188 21.09 6.0188C19.8075 6.0188 18.6038 6.52505 17.6925 7.44755L15.51 9.67505L7.91629 19.1588L1.99879 27.1913C0.423786 29.4076 0.322535 32.3551 1.74004 34.7063L6.93754 43.2788L7.59004 42.7388C8.47879 41.9963 9.61504 41.5913 10.785 41.5913C11.91 41.5913 12.9675 41.9513 13.8338 42.6376C14.5088 43.1776 15.015 43.8751 15.3413 44.6963L15.6225 45.4051L16.32 45.1013C17.0963 44.7638 17.9513 44.5838 18.795 44.5838C20.145 44.5838 21.4275 45.0226 22.485 45.8551C23.925 46.9801 24.7463 48.7126 24.7688 50.5913L24.8813 51.3113H25.6013C26.7825 51.3113 27.885 51.6826 28.7963 52.4026C29.865 53.2463 30.54 54.4501 30.7313 55.8676C30.7313 55.9126 30.7313 56.6213 30.7313 56.6213L31.44 56.6438C32.3738 56.6776 33.2288 56.9813 33.9375 57.5326C35.3213 58.6238 35.895 60.4238 35.3888 62.1226L35.2425 62.6401L39.2363 65.3288C39.855 65.7451 40.5975 65.9588 41.3738 65.9588C42.6675 65.9588 43.9163 65.3288 44.625 64.3163C45.8513 62.5613 45.435 60.1201 43.7025 58.8826L43.5 58.7701L37.785 54.6638C37.5375 54.4838 37.38 54.2251 37.335 53.9326C37.29 53.6401 37.3575 53.3476 37.5263 53.1001C37.74 52.8076 38.0775 52.6276 38.4488 52.6276C38.685 52.6276 38.91 52.7063 39.1013 52.8413L49.0463 59.9738C49.5863 60.3563 50.2275 60.5701 50.9138 60.5701C51.9488 60.5701 52.9163 60.0976 53.5125 59.2988C54.0413 58.5788 54.255 57.6901 54.0975 56.8238C53.9738 56.0926 53.5913 55.4288 53.0288 54.9338V54.8776L52.7138 54.6863L43.185 48.3751C42.6675 48.0263 42.5325 47.3288 42.8588 46.8226C43.0725 46.5076 43.4213 46.3163 43.8038 46.3163C44.0175 46.3163 44.2313 46.3838 44.4113 46.4963L57 54.8438C57.5288 55.1926 58.1363 55.3726 58.7775 55.3726C59.79 55.3726 60.7238 54.9113 61.3538 54.1126L62.0625 53.1676C62.6475 52.4138 62.8613 51.4463 62.6588 50.5463C62.4788 49.6126 61.8938 48.8251 61.05 48.3751L45.3225 39.9038C45.0525 39.7576 44.8613 39.5213 44.7713 39.2401C44.6813 38.9588 44.715 38.6551 44.8613 38.3851C45.0638 38.0138 45.4463 37.7888 45.8625 37.7888C46.0538 37.7888 46.2225 37.8338 46.3913 37.9238L62.6813 46.6988C63.165 46.9576 63.705 47.0926 64.2225 47.0926C64.5488 47.0926 64.875 47.0363 65.1675 46.9463C65.9438 46.7101 66.5963 46.1926 67.0125 45.4613L67.0463 45.4051L67.0688 45.3488C67.8 43.3126 67.2825 41.4563 65.4375 39.5101L65.3138 39.3863L65.145 39.3301C64.785 39.2063 64.3688 39.0488 63.975 38.8126L42.1388 26.3476L33.78 32.3213C32.9138 32.9401 31.9013 33.2663 30.8325 33.2663C29.415 33.2663 28.0425 32.6701 27.0863 31.6238L25.6913 30.1051C24.8475 29.1938 24.4088 27.9676 24.51 26.7188C24.5888 25.4813 25.1963 24.3338 26.1525 23.5463L29.145 21.0826C29.3475 20.9138 29.5838 20.8351 29.8538 20.8351C30.1913 20.8351 30.5175 20.9813 30.7313 21.2513C31.125 21.735 31.0575 22.4438 30.5738 22.8263L27.5813 25.2788C27.0863 25.6838 26.7938 26.2351 26.7488 26.8988C26.715 27.5288 26.9288 28.1363 27.3563 28.5976L28.74 30.1051C29.2688 30.6788 30.0338 31.0163 30.8213 31.0163C31.4175 31.0163 31.9913 30.8363 32.475 30.4876L41.2388 24.2326H41.3288L41.4863 24.0638C41.5425 24.0301 41.5875 24.0075 41.6438 23.9963L41.8238 23.9401L50.8013 22.1401C50.8688 22.1288 50.9475 22.1175 51.015 22.1175C51.5325 22.1175 52.005 22.5113 52.1063 23.0175C52.1625 23.31 52.1063 23.6138 51.9375 23.8725C51.7688 24.1201 51.5213 24.2888 51.2288 24.345L45.2325 25.5488L65.1225 36.9001C65.8988 37.3388 66.7763 37.5751 67.6425 37.5751C68.1713 37.5751 68.7 37.4963 69.2063 37.3276C70.5788 36.8776 71.67 35.8988 72.2888 34.5713C72.9525 33.0751 72.8963 31.3763 72.1313 29.9925Z" fill="#567F40"/>
</g>
<defs>
<clipPath id="clip0_44_4563">
<rect width="72" height="72" fill="white" transform="translate(0.75)"/>
</clipPath>
</defs>
</svg>
