<svg width="24" height="24" viewBox="0 0 24 24" fill="none" xmlns="http://www.w3.org/2000/svg">
<g clip-path="url(#clip0_38_9061)">
<path d="M4.24506 15.4087C4.21506 15.1687 4.09506 14.955 3.90756 14.805C3.74631 14.6775 3.54756 14.61 3.34506 14.61C3.06381 14.61 2.80506 14.7375 2.63256 14.955L1.92006 15.8625C1.77006 16.0537 1.70256 16.29 1.73256 16.5337C1.76256 16.7737 1.88256 16.9875 2.07381 17.1412C2.23131 17.265 2.43006 17.3325 2.62881 17.3325C2.91006 17.3325 3.16881 17.205 3.34506 16.9875L4.05756 16.08C4.20756 15.8887 4.27131 15.6487 4.24506 15.4087ZM6.99381 17.6587C7.20381 17.3925 7.30131 17.0625 7.26007 16.725C7.21881 16.3875 7.05006 16.0837 6.78381 15.8737C6.55506 15.6975 6.28506 15.6037 6.00006 15.6037C5.95131 15.6037 5.90257 15.6075 5.85006 15.615C5.51631 15.6562 5.21256 15.825 5.00256 16.0912L4.08756 17.2575C3.87381 17.5237 3.78006 17.8575 3.82131 18.1912C3.86256 18.525 4.03131 18.8287 4.30131 19.0425C4.53006 19.2187 4.80006 19.3125 5.08131 19.3125C5.13006 19.3125 5.18256 19.3087 5.23131 19.305C5.56506 19.2637 5.86881 19.095 6.07881 18.8287L6.89631 17.79L6.99381 17.6587ZM9.25506 18.7087C9.22131 18.45 9.09006 18.2175 8.88756 18.0562C8.71131 17.9175 8.50506 17.8462 8.28381 17.8462C8.23881 17.8462 8.20131 17.8462 8.16381 17.8537C7.90131 17.8875 7.66882 18.015 7.50757 18.2212L6.75006 19.1887C6.58881 19.395 6.51756 19.65 6.54756 19.9087C6.57381 20.1712 6.70506 20.4037 6.91506 20.5725C7.08382 20.7075 7.29756 20.7825 7.51881 20.7825C7.56006 20.7825 7.60132 20.7787 7.63881 20.775C7.89382 20.7487 8.13756 20.6137 8.30256 20.4037L8.40381 20.2725H8.40756L9.05631 19.44C9.21381 19.2262 9.28506 18.9712 9.25506 18.7087ZM10.6013 19.7737C10.4813 19.68 10.3351 19.6275 10.1813 19.6275C10.1588 19.6275 10.1251 19.6275 10.1026 19.6312C9.91881 19.65 9.75006 19.7437 9.64131 19.8975L9.06006 20.6325C8.94381 20.7787 8.89506 20.9587 8.92131 21.1275C8.94006 21.3112 9.03381 21.48 9.17256 21.5775C9.29256 21.675 9.44256 21.7275 9.60006 21.7275C9.62631 21.7275 9.64881 21.7275 9.68256 21.7237C9.86631 21.6975 10.0276 21.6037 10.1288 21.4687L10.7176 20.7225C10.8301 20.5837 10.8826 20.4075 10.8601 20.2275C10.8338 20.0512 10.7401 19.8862 10.6013 19.7737Z" fill="white"/>
<path d="M23.7936 9.99748L21.5998 5.99248C20.8686 4.66123 19.4661 3.83623 17.9323 3.83623C17.8461 3.83623 17.7636 3.83998 17.6773 3.84373C15.3111 3.99748 13.1848 4.78498 13.1698 4.79248C13.1286 4.80748 13.0836 4.81498 13.0423 4.81498C12.9861 4.81498 12.9336 4.80373 12.8773 4.77373L7.46985 2.16748C7.2561 2.06248 7.0161 2.00623 6.77985 2.00623C6.35235 2.00623 5.9511 2.17498 5.64735 2.48248L4.91985 3.22498L2.3886 6.38623L0.416099 9.06373C-0.108901 9.80248 -0.142651 10.785 0.329849 11.5687L2.06235 14.4262L2.27985 14.2462C2.5761 13.9987 2.95485 13.8637 3.34485 13.8637C3.71985 13.8637 4.07235 13.9837 4.3611 14.2125C4.5861 14.3925 4.75485 14.625 4.8636 14.8987L4.95735 15.135L5.18985 15.0337C5.4486 14.9212 5.7336 14.8612 6.01485 14.8612C6.46485 14.8612 6.89235 15.0075 7.24485 15.285C7.72485 15.66 7.9986 16.2375 8.0061 16.8637L8.0436 17.1037H8.2836C8.67735 17.1037 9.04485 17.2275 9.3486 17.4675C9.70485 17.7487 9.92985 18.15 9.9936 18.6225C9.9936 18.6375 9.9936 18.8737 9.9936 18.8737L10.2298 18.8812C10.5411 18.8925 10.8261 18.9937 11.0623 19.1775C11.5236 19.5412 11.7148 20.1412 11.5461 20.7075L11.4973 20.88L12.8286 21.7762C13.0348 21.915 13.2823 21.9862 13.5411 21.9862C13.9723 21.9862 14.3886 21.7762 14.6248 21.4387C15.0336 20.8537 14.8948 20.04 14.3173 19.6275L14.2498 19.59L12.3448 18.2212C12.2623 18.1612 12.2098 18.075 12.1948 17.9775C12.1798 17.88 12.2023 17.7825 12.2586 17.7C12.3298 17.6025 12.4423 17.5425 12.5661 17.5425C12.6448 17.5425 12.7198 17.5687 12.7836 17.6137L16.0986 19.9912C16.2786 20.1187 16.4923 20.19 16.7211 20.19C17.0661 20.19 17.3886 20.0325 17.5873 19.7662C17.7636 19.5262 17.8348 19.23 17.7823 18.9412C17.7411 18.6975 17.6136 18.4762 17.4261 18.3112V18.2925L17.3211 18.2287L14.1448 16.125C13.9723 16.0087 13.9273 15.7762 14.0361 15.6075C14.1073 15.5025 14.2236 15.4387 14.3511 15.4387C14.4223 15.4387 14.4936 15.4612 14.5536 15.4987L18.7498 18.2812C18.9261 18.3975 19.1286 18.4575 19.3423 18.4575C19.6798 18.4575 19.9911 18.3037 20.2011 18.0375L20.4373 17.7225C20.6323 17.4712 20.7036 17.1487 20.6361 16.8487C20.5761 16.5375 20.3811 16.275 20.0998 16.125L14.8573 13.3012C14.7673 13.2525 14.7036 13.1737 14.6736 13.08C14.6436 12.9862 14.6548 12.885 14.7036 12.795C14.7711 12.6712 14.8986 12.5962 15.0373 12.5962C15.1011 12.5962 15.1573 12.6112 15.2136 12.6412L20.6436 15.5662C20.8048 15.6525 20.9848 15.6975 21.1573 15.6975C21.2661 15.6975 21.3748 15.6787 21.4723 15.6487C21.7311 15.57 21.9486 15.3975 22.0873 15.1537L22.0986 15.135L22.1061 15.1162C22.3498 14.4375 22.1773 13.8187 21.5623 13.17L21.5211 13.1287L21.4648 13.11C21.3448 13.0687 21.2061 13.0162 21.0748 12.9375L13.7961 8.78248L11.0098 10.7737C10.7211 10.98 10.3836 11.0887 10.0273 11.0887C9.55485 11.0887 9.09735 10.89 8.7786 10.5412L8.3136 10.035C8.03235 9.73123 7.8861 9.32248 7.91985 8.90623C7.9461 8.49373 8.1486 8.11123 8.46735 7.84873L9.46485 7.02748C9.53235 6.97123 9.6111 6.94498 9.7011 6.94498C9.8136 6.94498 9.92235 6.99373 9.9936 7.08373C10.1248 7.24498 10.1023 7.48123 9.9411 7.60873L8.9436 8.42623C8.7786 8.56123 8.6811 8.74498 8.6661 8.96623C8.65485 9.17623 8.7261 9.37873 8.8686 9.53248L9.32985 10.035C9.5061 10.2262 9.7611 10.3387 10.0236 10.3387C10.2223 10.3387 10.4136 10.2787 10.5748 10.1625L13.4961 8.07748H13.5261L13.5786 8.02123C13.5973 8.00998 13.6123 8.00248 13.6311 7.99873L13.6911 7.97998L16.6836 7.37998C16.7061 7.37623 16.7323 7.37248 16.7548 7.37248C16.9273 7.37248 17.0848 7.50373 17.1186 7.67248C17.1373 7.76998 17.1186 7.87123 17.0623 7.95748C17.0061 8.03998 16.9236 8.09623 16.8261 8.11498L14.8273 8.51623L21.4573 12.3C21.7161 12.4462 22.0086 12.525 22.2973 12.525C22.4736 12.525 22.6498 12.4987 22.8186 12.4425C23.2761 12.2925 23.6398 11.9662 23.8461 11.5237C24.0673 11.025 24.0486 10.4587 23.7936 9.99748Z" fill="white"/>
</g>
<defs>
<clipPath id="clip0_38_9061">
<rect width="24" height="24" fill="white"/>
</clipPath>
</defs>
</svg>
