<svg width="24" height="24" viewBox="0 0 24 24" fill="none" xmlns="http://www.w3.org/2000/svg">
<path d="M10.0698 2.81998L3.13978 8.36997C2.35978 8.98997 1.85978 10.3 2.02978 11.28L3.35978 19.24C3.59978 20.66 4.95977 21.81 6.39977 21.81H17.5998C19.0298 21.81 20.3998 20.65 20.6398 19.24L21.9698 11.28C22.1298 10.3 21.6298 8.98997 20.8598 8.36997L13.9298 2.82996C12.8598 1.96996 11.1298 1.96998 10.0698 2.81998Z" fill="white"/>
<path d="M12 15.5C13.3807 15.5 14.5 14.3807 14.5 13C14.5 11.6193 13.3807 10.5 12 10.5C10.6193 10.5 9.5 11.6193 9.5 13C9.5 14.3807 10.6193 15.5 12 15.5Z" fill="#1F354F"/>
</svg>
