<svg width="40" height="41" viewBox="0 0 40 41" fill="none" xmlns="http://www.w3.org/2000/svg">
<path opacity="0.4" d="M19.9999 29.4167C21.5002 29.4167 22.7165 28.2004 22.7165 26.7C22.7165 25.1996 21.5002 23.9833 19.9999 23.9833C18.4995 23.9833 17.2832 25.1996 17.2832 26.7C17.2832 28.2004 18.4995 29.4167 19.9999 29.4167Z" fill="#419000"/>
<path d="M27.7502 16.2333H12.2502C5.41683 16.2333 3.3335 18.3167 3.3335 25.15V28.25C3.3335 35.0833 5.41683 37.1667 12.2502 37.1667H27.7502C34.5835 37.1667 36.6668 35.0833 36.6668 28.25V25.15C36.6668 18.3167 34.5835 16.2333 27.7502 16.2333ZM20.0002 31.7333C17.2168 31.7333 14.9668 29.4667 14.9668 26.7C14.9668 23.9333 17.2168 21.6667 20.0002 21.6667C22.7835 21.6667 25.0335 23.9333 25.0335 26.7C25.0335 29.4667 22.7835 31.7333 20.0002 31.7333Z" fill="#419000"/>
<path opacity="0.4" d="M11.8665 16.25V14.3C11.8665 9.41666 13.2499 6.16666 19.9999 6.16666C26.7499 6.16666 28.1332 9.41666 28.1332 14.3V16.25C28.9832 16.2667 29.7499 16.3 30.4665 16.4V14.3C30.4665 9.79999 29.3832 3.83333 19.9999 3.83333C10.6165 3.83333 9.5332 9.79999 9.5332 14.3V16.3833C10.2332 16.3 11.0165 16.25 11.8665 16.25Z" fill="#419000"/>
</svg>
