<svg width="40" height="40" viewBox="0 0 40 40" fill="none" xmlns="http://www.w3.org/2000/svg">
<path opacity="0.4" d="M22.0671 3.33334C22.8504 3.33334 23.5004 3.96668 23.5004 4.76668V35.25C23.5004 36.0333 22.8671 36.6833 22.0671 36.6833C12.2504 36.6833 5.40039 29.8333 5.40039 20.0167C5.40039 10.2 12.2671 3.33334 22.0671 3.33334Z" fill="#D40808"/>
<path d="M34.2338 19.2333L29.5005 14.4833C29.0171 14 28.2171 14 27.7338 14.4833C27.2505 14.9667 27.2505 15.7667 27.7338 16.25L30.3338 18.85H14.3838C13.7005 18.85 13.1338 19.4167 13.1338 20.1C13.1338 20.7833 13.7005 21.35 14.3838 21.35H30.3338L27.7338 23.95C27.2505 24.4333 27.2505 25.2333 27.7338 25.7167C27.9838 25.9667 28.3005 26.0833 28.6171 26.0833C28.9338 26.0833 29.2505 25.9667 29.5005 25.7167L34.2338 20.9667C34.7171 20.5 34.7171 19.7167 34.2338 19.2333Z" fill="#D40808"/>
</svg>
