<svg width="32" height="32" viewBox="0 0 32 32" fill="none" xmlns="http://www.w3.org/2000/svg">
<path opacity="0.4" d="M17.6532 2.66663C18.2798 2.66663 18.7998 3.17329 18.7998 3.81329V28.2C18.7998 28.8266 18.2932 29.3466 17.6532 29.3466C9.79982 29.3466 4.31982 23.8666 4.31982 16.0133C4.31982 8.15996 9.81316 2.66663 17.6532 2.66663Z" fill="#BAC2CB"/>
<path d="M27.3868 15.3866L23.6002 11.5866C23.2135 11.2 22.5735 11.2 22.1868 11.5866C21.8002 11.9733 21.8002 12.6133 22.1868 13L24.2668 15.08H11.5068C10.9602 15.08 10.5068 15.5333 10.5068 16.08C10.5068 16.6266 10.9602 17.08 11.5068 17.08H24.2668L22.1868 19.16C21.8002 19.5466 21.8002 20.1866 22.1868 20.5733C22.3868 20.7733 22.6402 20.8666 22.8935 20.8666C23.1468 20.8666 23.4002 20.7733 23.6002 20.5733L27.3868 16.7733C27.7735 16.4 27.7735 15.7733 27.3868 15.3866Z" fill="#BAC2CB"/>
</svg>
