<svg width="25" height="24" viewBox="0 0 25 24" fill="none" xmlns="http://www.w3.org/2000/svg">
<path d="M12.5 10.5199C12.09 10.5199 11.75 10.1799 11.75 9.76994V6.43994C11.75 6.02994 12.09 5.68994 12.5 5.68994C12.91 5.68994 13.25 6.02994 13.25 6.43994V9.76994C13.25 10.1899 12.91 10.5199 12.5 10.5199Z" fill="white"/>
<path d="M12.5199 20.3502C9.93987 20.3502 7.36987 19.9402 4.91987 19.1202C4.00987 18.8202 3.31987 18.1702 3.01987 17.3502C2.71987 16.5302 2.81987 15.5902 3.30987 14.7702L4.57987 12.6502C4.85987 12.1802 5.10987 11.3002 5.10987 10.7502V8.65023C5.10987 4.56023 8.42987 1.24023 12.5199 1.24023C16.6099 1.24023 19.9299 4.56023 19.9299 8.65023V10.7502C19.9299 11.2902 20.1799 12.1802 20.4599 12.6502L21.7299 14.7702C22.1999 15.5502 22.2799 16.4802 21.9699 17.3302C21.6599 18.1802 20.9799 18.8302 20.1199 19.1202C17.6699 19.9502 15.0999 20.3502 12.5199 20.3502ZM12.5199 2.75023C9.25987 2.75023 6.60987 5.40023 6.60987 8.66023V10.7602C6.60987 11.5702 6.28987 12.7402 5.86987 13.4302L4.59987 15.5602C4.33987 15.9902 4.27987 16.4502 4.42987 16.8502C4.57987 17.2502 4.91987 17.5502 5.39987 17.7102C9.99987 19.2402 15.0599 19.2402 19.6599 17.7102C20.0899 17.5702 20.4199 17.2502 20.5699 16.8302C20.7299 16.4102 20.6799 15.9502 20.4499 15.5602L19.1799 13.4402C18.7599 12.7502 18.4399 11.5802 18.4399 10.7702V8.67023C18.4299 5.40023 15.7799 2.75023 12.5199 2.75023Z" fill="white"/>
<path d="M12.4999 22.8998C11.4299 22.8998 10.3799 22.4598 9.61992 21.6998C8.85992 20.9398 8.41992 19.8898 8.41992 18.8198H9.91992C9.91992 19.4998 10.1999 20.1598 10.6799 20.6398C11.1599 21.1198 11.8199 21.3998 12.4999 21.3998C13.9199 21.3998 15.0799 20.2398 15.0799 18.8198H16.5799C16.5799 21.0698 14.7499 22.8998 12.4999 22.8998Z" fill="white"/>
</svg>
