<svg width="24" height="24" viewBox="0 0 24 24" fill="none" xmlns="http://www.w3.org/2000/svg">
<path d="M18 3H6C3.79 3 2 4.78 2 6.97V17.03C2 19.22 3.79 21 6 21H18C20.21 21 22 19.22 22 17.03V6.97C22 4.78 20.21 3 18 3Z" fill="white"/>
<path d="M17.75 8.75H6.75C6.34 8.75 6 8.41 6 8C6 7.59 6.34 7.25 6.75 7.25H17.75C18.16 7.25 18.5 7.59 18.5 8C18.5 8.41 18.16 8.75 17.75 8.75Z" fill="#223B58"/>
<path d="M14.75 12.75H6.75C6.34 12.75 6 12.41 6 12C6 11.59 6.34 11.25 6.75 11.25H14.75C15.16 11.25 15.5 11.59 15.5 12C15.5 12.41 15.16 12.75 14.75 12.75Z" fill="#223B58"/>
<path d="M12.75 16.75H6.75C6.34 16.75 6 16.41 6 16C6 15.59 6.34 15.25 6.75 15.25H12.75C13.16 15.25 13.5 15.59 13.5 16C13.5 16.41 13.16 16.75 12.75 16.75Z" fill="#223B58"/>
</svg>
