<svg width="25" height="24" viewBox="0 0 25 24" fill="none" xmlns="http://www.w3.org/2000/svg">
<path d="M17.5 7.75H8C7.59 7.75 7.25 7.41 7.25 7V5C7.25 2.44 8.44 1.25 11 1.25H14.5C17.06 1.25 18.25 2.44 18.25 5V7C18.25 7.41 17.91 7.75 17.5 7.75ZM8.75 6.25H16.75V5C16.75 3.3 16.2 2.75 14.5 2.75H11C9.3 2.75 8.75 3.3 8.75 5V6.25Z" fill="#87C756"/>
<path d="M13.75 22.75H11.75C9.33 22.75 8 21.42 8 19V15C8 14.59 8.34 14.25 8.75 14.25H16.75C17.16 14.25 17.5 14.59 17.5 15V19C17.5 21.42 16.17 22.75 13.75 22.75ZM9.5 15.75V19C9.5 20.58 10.17 21.25 11.75 21.25H13.75C15.33 21.25 16 20.58 16 19V15.75H9.5Z" fill="#87C756"/>
<path d="M18.75 18.75H16.75C16.34 18.75 16 18.41 16 18V15.75H9.5V18C9.5 18.41 9.16 18.75 8.75 18.75H6.75C4.33 18.75 3 17.42 3 15V10C3 7.58 4.33 6.25 6.75 6.25H18.75C21.17 6.25 22.5 7.58 22.5 10V15C22.5 17.42 21.17 18.75 18.75 18.75ZM17.5 17.25H18.75C20.33 17.25 21 16.58 21 15V10C21 8.42 20.33 7.75 18.75 7.75H6.75C5.17 7.75 4.5 8.42 4.5 10V15C4.5 16.58 5.17 17.25 6.75 17.25H8V15C8 14.59 8.34 14.25 8.75 14.25H16.75C17.16 14.25 17.5 14.59 17.5 15V17.25Z" fill="#87C756"/>
<path d="M17.75 15.75H7.75C7.34 15.75 7 15.41 7 15C7 14.59 7.34 14.25 7.75 14.25H17.75C18.16 14.25 18.5 14.59 18.5 15C18.5 15.41 18.16 15.75 17.75 15.75Z" fill="#87C756"/>
<path d="M10.75 11.75H7.75C7.34 11.75 7 11.41 7 11C7 10.59 7.34 10.25 7.75 10.25H10.75C11.16 10.25 11.5 10.59 11.5 11C11.5 11.41 11.16 11.75 10.75 11.75Z" fill="#87C756"/>
</svg>
