<svg width="100" height="100" viewBox="0 0 100 100" fill="none" xmlns="http://www.w3.org/2000/svg">
<path d="M40.564 34.9834C36.6273 34.9834 32.6906 34.9834 28.7426 34.9834C22.4685 34.9834 16.1831 34.9834 9.90894 34.9834C8.46622 34.9834 7.03468 34.9834 5.59195 34.9834C7.45966 36.8511 9.31619 38.7077 11.1839 40.5754C11.1839 36.6386 11.1839 32.7019 11.1839 28.754C11.1839 22.4798 11.1839 16.1945 11.1839 9.92029C11.1839 8.47757 11.1839 7.04603 11.1839 5.6033C9.31619 7.47102 7.45966 9.32754 5.59195 11.1953C9.52869 11.1953 13.4654 11.1953 17.4133 11.1953C23.6875 11.1953 29.9729 11.1953 36.247 11.1953C37.6898 11.1953 39.1213 11.1953 40.564 11.1953C38.6963 9.32754 36.8398 7.47102 34.9721 5.6033C34.9721 9.54004 34.9721 13.4768 34.9721 17.4247C34.9721 23.6989 34.9721 29.9842 34.9721 36.2584C34.9721 37.7011 34.9721 39.1327 34.9721 40.5754C34.9721 42.0069 35.5984 43.5167 36.6049 44.5345C37.5779 45.5075 39.166 46.2344 40.564 46.1673C42.0067 46.1002 43.5054 45.6305 44.5231 44.5345C45.5297 43.4385 46.156 42.0964 46.156 40.5754C46.156 36.6386 46.156 32.7019 46.156 28.754C46.156 22.4798 46.156 16.1945 46.156 9.92029C46.156 8.47757 46.156 7.04603 46.156 5.6033C46.156 2.58365 43.5949 0.0113525 40.564 0.0113525C36.6273 0.0113525 32.6906 0.0113525 28.7426 0.0113525C22.4685 0.0113525 16.1831 0.0113525 9.90894 0.0113525C8.46622 0.0113525 7.03468 0.0113525 5.59195 0.0113525C2.5723 0.0113525 0 2.57247 0 5.6033C0 9.54004 0 13.4768 0 17.4247C0 23.6989 0 29.9842 0 36.2584C0 37.7011 0 39.1327 0 40.5754C0 43.595 2.56111 46.1673 5.59195 46.1673C9.52869 46.1673 13.4654 46.1673 17.4133 46.1673C23.6875 46.1673 29.9729 46.1673 36.247 46.1673C37.6898 46.1673 39.1213 46.1673 40.564 46.1673C41.9956 46.1673 43.5054 45.541 44.5231 44.5345C45.4961 43.5615 46.2231 41.9734 46.156 40.5754C46.0889 39.1327 45.6191 37.634 44.5231 36.6163C43.4159 35.6097 42.0738 34.9834 40.564 34.9834Z" fill="white"/>
<path d="M26.4273 20.8469C24.1905 20.8469 21.9537 20.8469 19.717 20.8469C21.5847 22.7146 23.4412 24.5711 25.3089 26.4388C25.3089 24.202 25.3089 21.9652 25.3089 19.7285C23.4412 21.5962 21.5847 23.4527 19.717 25.3204C21.9537 25.3204 24.1905 25.3204 26.4273 25.3204C24.5596 23.4527 22.7031 21.5962 20.8353 19.7285C20.8353 21.9652 20.8353 24.202 20.8353 26.4388C20.8353 27.8703 21.4616 29.3802 22.4682 30.3979C23.4412 31.3709 25.0293 32.0979 26.4273 32.0308C27.87 31.9637 29.3687 31.4939 30.3864 30.3979C31.3929 29.3019 32.0192 27.9598 32.0192 26.4388C32.0192 24.202 32.0192 21.9652 32.0192 19.7285C32.0192 16.7088 29.4581 14.1365 26.4273 14.1365C24.1905 14.1365 21.9537 14.1365 19.717 14.1365C16.6973 14.1365 14.125 16.6976 14.125 19.7285C14.125 21.9652 14.125 24.202 14.125 26.4388C14.125 29.4585 16.6861 32.0308 19.717 32.0308C21.9537 32.0308 24.1905 32.0308 26.4273 32.0308C27.8588 32.0308 29.3687 31.4045 30.3864 30.3979C31.3594 29.4249 32.0863 27.8368 32.0192 26.4388C31.9521 24.9961 31.4824 23.4974 30.3864 22.4797C29.2904 21.4843 27.9483 20.8469 26.4273 20.8469ZM65.0118 54.9578C65.0118 53.3249 65.0118 51.6809 65.0118 50.048C65.0118 46.1113 65.0118 42.1857 65.0118 38.249C65.0118 33.507 65.0118 28.7762 65.0118 24.0343C65.0118 19.9186 65.0118 15.8029 65.0118 11.6872C65.0118 9.68532 65.0453 7.6834 65.0118 5.68148C65.0118 5.64793 65.0118 5.62556 65.0118 5.59201C63.144 7.45972 61.2875 9.31625 59.4198 11.184C63.3565 11.184 67.2933 11.184 71.2412 11.184C77.5154 11.184 83.8007 11.184 90.0749 11.184C91.5176 11.184 92.9492 11.184 94.3919 11.184C92.5242 9.31625 90.6676 7.45972 88.7999 5.59201C88.7999 9.52875 88.7999 13.4655 88.7999 17.4134C88.7999 23.6876 88.7999 29.9729 88.7999 36.2471C88.7999 37.6898 88.7999 39.1214 88.7999 40.5641C90.6676 38.6964 92.5242 36.8398 94.3919 34.9721C92.1663 34.9721 89.9295 34.9721 87.7039 34.9721C84.1362 34.9721 80.5798 34.9721 77.0121 34.9721C76.1845 34.9721 75.3569 34.9721 74.5293 34.9721C73.0977 34.9721 71.5879 35.5984 70.5702 36.605C69.5972 37.578 68.8702 39.1661 68.9373 40.5641C69.0044 42.0068 69.4741 43.5054 70.5702 44.5232C71.6662 45.5297 73.0083 46.156 74.5293 46.156C76.7549 46.156 78.9916 46.156 81.2172 46.156C84.7849 46.156 88.3414 46.156 91.909 46.156C92.7367 46.156 93.5643 46.156 94.3919 46.156C97.4115 46.156 99.9838 43.5949 99.9838 40.5641C99.9838 36.6273 99.9838 32.6906 99.9838 28.7427C99.9838 22.4685 99.9838 16.1832 99.9838 9.909C99.9838 8.46628 99.9838 7.03474 99.9838 5.59201C99.9838 2.57236 97.4227 6.10352e-05 94.3919 6.10352e-05C90.4551 6.10352e-05 86.5184 6.10352e-05 82.5705 6.10352e-05C76.2963 6.10352e-05 70.011 6.10352e-05 63.7368 6.10352e-05C62.2941 6.10352e-05 60.8625 6.10352e-05 59.4198 6.10352e-05C56.4002 6.10352e-05 53.8279 2.56117 53.8279 5.59201C53.8279 7.22486 53.8279 8.8689 53.8279 10.5017C53.8279 14.4385 53.8279 18.364 53.8279 22.3008C53.8279 27.0427 53.8279 31.7735 53.8279 36.5155C53.8279 40.6312 53.8279 44.7469 53.8279 48.8625C53.8279 50.8645 53.8055 52.8664 53.8279 54.8683C53.8279 54.9018 53.8279 54.9242 53.8279 54.9578C53.8279 56.3893 54.4542 57.8991 55.4607 58.9169C56.4337 59.8899 58.0218 60.6168 59.4198 60.5497C60.8625 60.4826 62.3612 60.0129 63.3789 58.9169C64.3855 57.8208 65.0118 56.4788 65.0118 54.9578Z" fill="white"/>
<path d="M67.9646 19.7284C67.9646 21.9652 67.9646 24.2019 67.9646 26.4387C67.9646 29.4584 70.5257 32.0307 73.5565 32.0307C75.7933 32.0307 78.0301 32.0307 80.2669 32.0307C83.2865 32.0307 85.8588 29.4696 85.8588 26.4387C85.8588 24.2019 85.8588 21.9652 85.8588 19.7284C85.8588 16.7087 83.2977 14.1364 80.2669 14.1364C78.0301 14.1364 75.7933 14.1364 73.5565 14.1364C72.125 14.1364 70.6152 14.7627 69.5974 15.7693C68.6244 16.7423 67.8975 18.3416 67.9646 19.7284C68.0317 21.1711 68.5014 22.6698 69.5974 23.6875C70.6935 24.694 72.0355 25.3203 73.5565 25.3203C75.7933 25.3203 78.0301 25.3203 80.2669 25.3203C78.3992 23.4526 76.5426 21.5961 74.6749 19.7284C74.6749 21.9652 74.6749 24.2019 74.6749 26.4387C76.5426 24.571 78.3992 22.7145 80.2669 20.8468C78.0301 20.8468 75.7933 20.8468 73.5565 20.8468C75.4242 22.7145 77.2808 24.571 79.1485 26.4387C79.1485 24.2019 79.1485 21.9652 79.1485 19.7284C79.1485 18.2968 78.5222 16.787 77.5156 15.7693C76.5426 14.7963 74.9545 14.0693 73.5565 14.1364C72.1138 14.2035 70.6152 14.6733 69.5974 15.7693C68.5909 16.8765 67.9646 18.2186 67.9646 19.7284ZM34.9721 59.4312C34.9721 63.368 34.9721 67.3047 34.9721 71.2526C34.9721 77.5268 34.9721 83.8121 34.9721 90.0863C34.9721 91.529 34.9721 92.9606 34.9721 94.4033C36.8398 92.5356 38.6963 90.6791 40.564 88.8114C36.6273 88.8114 32.6905 88.8114 28.7426 88.8114C22.4685 88.8114 16.1831 88.8114 9.90894 88.8114C8.46622 88.8114 7.03468 88.8114 5.59195 88.8114C7.45966 90.6791 9.31619 92.5356 11.1839 94.4033C11.1839 90.4666 11.1839 86.5298 11.1839 82.5819C11.1839 76.3078 11.1839 70.0224 11.1839 63.7482C11.1839 62.3055 11.1839 60.874 11.1839 59.4312C11.1839 57.9997 10.5576 56.4899 9.55105 55.4721C8.57805 54.4991 6.98994 53.7722 5.59195 53.8393C4.14923 53.9064 2.65058 54.3761 1.63285 55.4721C0.626298 56.5682 0 57.9102 0 59.4312C0 63.368 0 67.3047 0 71.2526C0 77.5268 0 83.8121 0 90.0863C0 91.529 0 92.9606 0 94.4033C0 97.423 2.56111 99.9953 5.59195 99.9953C9.52869 99.9953 13.4654 99.9953 17.4133 99.9953C23.6875 99.9953 29.9729 99.9953 36.247 99.9953C37.6898 99.9953 39.1213 99.9953 40.564 99.9953C43.5837 99.9953 46.156 97.4341 46.156 94.4033C46.156 90.4666 46.156 86.5298 46.156 82.5819C46.156 76.3078 46.156 70.0224 46.156 63.7482C46.156 62.3055 46.156 60.874 46.156 59.4312C46.156 57.9997 45.5297 56.4899 44.5231 55.4721C43.5501 54.4991 41.962 53.7722 40.564 53.8393C39.1213 53.9064 37.6227 54.3761 36.6049 55.4721C35.5984 56.5793 34.9721 57.9214 34.9721 59.4312Z" fill="white"/>
<path d="M26.4273 74.6865C24.1905 74.6865 21.9537 74.6865 19.717 74.6865C21.5847 76.5542 23.4412 78.4107 25.3089 80.2784C25.3089 78.0416 25.3089 75.8049 25.3089 73.5681C23.4412 75.4358 21.5847 77.2923 19.717 79.16C21.9537 79.16 24.1905 79.16 26.4273 79.16C24.5596 77.2923 22.7031 75.4358 20.8353 73.5681C20.8353 75.8049 20.8353 78.0416 20.8353 80.2784C20.8353 81.71 21.4616 83.2198 22.4682 84.2375C23.4412 85.2105 25.0293 85.9375 26.4273 85.8704C27.87 85.8033 29.3687 85.3335 30.3864 84.2375C31.3929 83.1415 32.0192 81.7994 32.0192 80.2784C32.0192 78.0416 32.0192 75.8049 32.0192 73.5681C32.0192 70.5484 29.4581 67.9761 26.4273 67.9761C24.1905 67.9761 21.9537 67.9761 19.717 67.9761C16.6973 67.9761 14.125 70.5372 14.125 73.5681C14.125 75.8049 14.125 78.0416 14.125 80.2784C14.125 83.2981 16.6861 85.8704 19.717 85.8704C21.9537 85.8704 24.1905 85.8704 26.4273 85.8704C27.8588 85.8704 29.3687 85.2441 30.3864 84.2375C31.3594 83.2645 32.0863 81.6764 32.0192 80.2784C31.9521 78.8357 31.4824 77.337 30.3864 76.3193C29.2904 75.3128 27.9483 74.6865 26.4273 74.6865ZM65.0118 94.4037C65.0118 91.7866 65.0118 89.1584 65.0118 86.5414C65.0118 82.3586 65.0118 78.1758 65.0118 73.9931C65.0118 73.0312 65.0118 72.0582 65.0118 71.0964C63.144 72.9641 61.2875 74.8207 59.4198 76.6884C63.3565 76.6884 67.2933 76.6884 71.2412 76.6884C77.5154 76.6884 83.8007 76.6884 90.0749 76.6884C91.5176 76.6884 92.9492 76.6884 94.3919 76.6884C97.4115 76.6884 99.9838 74.1273 99.9838 71.0964C99.9838 67.7077 99.9838 64.3078 99.9838 60.9191C99.9838 60.427 99.9838 59.9349 99.9838 59.4428C99.9838 58.0113 99.3575 56.5014 98.351 55.4837C97.378 54.5107 95.7899 53.7837 94.3919 53.8509C92.9492 53.918 91.4505 54.3877 90.4328 55.4837C89.4262 56.5797 88.7999 57.9218 88.7999 59.4428C88.7999 62.8315 88.7999 66.2314 88.7999 69.6202C88.7999 70.1122 88.7999 70.6043 88.7999 71.0964C90.6676 69.2287 92.5242 67.3722 94.3919 65.5045C90.4551 65.5045 86.5184 65.5045 82.5705 65.5045C76.2963 65.5045 70.011 65.5045 63.7368 65.5045C62.2941 65.5045 60.8625 65.5045 59.4198 65.5045C56.4002 65.5045 53.8279 68.0656 53.8279 71.0964C53.8279 73.7135 53.8279 76.3417 53.8279 78.9587C53.8279 83.1415 53.8279 87.3243 53.8279 91.507C53.8279 92.4689 53.8279 93.4419 53.8279 94.4037C53.8279 95.8352 54.4542 97.3451 55.4607 98.3628C56.4337 99.3358 58.0218 100.063 59.4198 99.9956C60.8625 99.9285 62.3612 99.4588 63.3789 98.3628C64.3855 97.2668 65.0118 95.9135 65.0118 94.4037Z" fill="white"/>
<path d="M80.2671 88.8116C78.0304 88.8116 75.7936 88.8116 73.5568 88.8116C75.4245 90.6793 77.281 92.5358 79.1487 94.4035C79.1487 92.1667 79.1487 89.93 79.1487 87.6932C77.281 89.5609 75.4245 91.4174 73.5568 93.2851C75.7936 93.2851 78.0304 93.2851 80.2671 93.2851C78.3994 91.4174 76.5429 89.5609 74.6752 87.6932C74.6752 89.93 74.6752 92.1667 74.6752 94.4035C74.6752 95.8351 75.3015 97.3449 76.308 98.3626C77.281 99.3356 78.8691 100.063 80.2671 99.9955C81.7099 99.9284 83.2085 99.4586 84.2262 98.3626C85.2328 97.2666 85.8591 95.9245 85.8591 94.4035C85.8591 92.1667 85.8591 89.93 85.8591 87.6932C85.8591 84.6735 83.298 82.1012 80.2671 82.1012C78.0304 82.1012 75.7936 82.1012 73.5568 82.1012C70.5371 82.1012 67.9648 84.6623 67.9648 87.6932C67.9648 89.93 67.9648 92.1667 67.9648 94.4035C67.9648 97.4232 70.526 99.9955 73.5568 99.9955C75.7936 99.9955 78.0304 99.9955 80.2671 99.9955C81.6987 99.9955 83.2085 99.3692 84.2262 98.3626C85.1992 97.3896 85.9262 95.8015 85.8591 94.4035C85.792 92.9608 85.3223 91.4621 84.2262 90.4444C83.119 89.449 81.777 88.8116 80.2671 88.8116ZM88.8005 87.6932C88.8005 89.93 88.8005 92.1667 88.8005 94.4035C88.8005 95.8351 89.4267 97.3449 90.4333 98.3626C91.4063 99.3356 92.9944 100.063 94.3924 99.9955C95.8351 99.9284 97.3338 99.4586 98.3515 98.3626C99.3581 97.2666 99.9844 95.9245 99.9844 94.4035C99.9844 92.1667 99.9844 89.93 99.9844 87.6932C99.9844 86.2616 99.3581 84.7518 98.3515 83.7341C97.3785 82.7611 95.7904 82.0341 94.3924 82.1012C92.9497 82.1683 91.451 82.638 90.4333 83.7341C89.4379 84.8301 88.8005 86.1833 88.8005 87.6932Z" fill="white"/>
</svg>
