<svg width="33" height="33" viewBox="0 0 33 33" fill="none" xmlns="http://www.w3.org/2000/svg">
<path d="M16.5 32.5C25.3366 32.5 32.5 25.3366 32.5 16.5C32.5 7.66344 25.3366 0.5 16.5 0.5C7.66344 0.5 0.5 7.66344 0.5 16.5C0.5 25.3366 7.66344 32.5 16.5 32.5Z" fill="#D40808"/>
<path d="M22.7029 19.6004L19.6029 16.5001L22.7029 13.3998C24.6916 11.3012 21.7013 8.30329 19.6029 10.2995L16.5029 13.3998L13.4029 10.2995C12.5475 9.44397 11.1583 9.44397 10.3029 10.2995C9.44744 11.155 9.44744 12.5443 10.3029 13.3998L13.3956 16.5001L10.2956 19.6004C8.30688 21.6989 11.2972 24.6969 13.3956 22.7007L16.4956 19.6004L19.5956 22.7007C21.6939 24.6896 24.6916 21.7063 22.7029 19.6004Z" fill="#F5F5F5"/>
</svg>
