<svg width="30" height="28" viewBox="0 0 30 28" fill="none" xmlns="http://www.w3.org/2000/svg">
<path d="M25.15 0.5C22.7517 0.5 20.8 2.519 20.8 5C20.8 5.69264 20.9647 6.34099 21.2361 6.92773L15.8496 12.5H8.93379C8.3331 10.7581 6.73733 9.5 4.85 9.5C2.4517 9.5 0.5 11.519 0.5 14C0.5 16.481 2.4517 18.5 4.85 18.5C6.73733 18.5 8.3331 17.2419 8.93379 15.5H15.8496L21.2361 21.0723C20.9647 21.659 20.8 22.3074 20.8 23C20.8 25.481 22.7517 27.5 25.15 27.5C27.5483 27.5 29.5 25.481 29.5 23C29.5 20.519 27.5483 18.5 25.15 18.5C24.4805 18.5 23.8537 18.6703 23.2865 18.9512L18.5004 14L23.2865 9.04883C23.8537 9.32967 24.4805 9.5 25.15 9.5C27.5483 9.5 29.5 7.481 29.5 5C29.5 2.519 27.5483 0.5 25.15 0.5Z" fill="#87C752"/>
</svg>
