<svg width="46" height="49" viewBox="0 0 46 49" fill="none" xmlns="http://www.w3.org/2000/svg">
<path opacity="0.4" d="M18.9391 1.80518L6.4445 7.35832C2.83045 8.96457 0.445471 12.5617 0.675445 16.5099C1.57453 31.9454 6.09464 38.7408 17.84 46.6925C20.9514 48.799 25.0529 48.8042 28.162 46.6943C39.9435 38.6993 44.3018 31.8078 45.2799 16.5634C45.5349 12.589 43.1461 8.95374 39.5068 7.3363L27.0618 1.80518C24.4762 0.656003 21.5247 0.656005 18.9391 1.80518Z" fill="#87C752"/>
<path fill-rule="evenodd" clip-rule="evenodd" d="M31.7348 16.0889C32.5141 16.7708 32.5931 17.9554 31.9112 18.7347L24.7364 26.9345C23.1947 28.6964 20.539 28.9324 18.7108 27.4698L14.3288 23.9642C13.5201 23.3173 13.389 22.1373 14.0359 21.3287C14.6828 20.5201 15.8628 20.389 16.6714 21.0359L21.0534 24.5415C21.3146 24.7505 21.694 24.7168 21.9142 24.4651L29.089 16.2653C29.7709 15.486 30.9554 15.407 31.7348 16.0889Z" fill="#87C752"/>
</svg>
