<svg width="25" height="25" viewBox="0 0 25 25" fill="none" xmlns="http://www.w3.org/2000/svg">
<path opacity="0.4" d="M12.333 22.0249C17.8559 22.0249 22.333 17.5478 22.333 12.0249C22.333 6.50205 17.8559 2.0249 12.333 2.0249C6.81016 2.0249 2.33301 6.50205 2.33301 12.0249C2.33301 17.5478 6.81016 22.0249 12.333 22.0249Z" fill="#419000"/>
<path d="M10.9129 15.605C10.7129 15.605 10.5229 15.525 10.3829 15.385L7.55295 12.555C7.26295 12.265 7.26295 11.785 7.55295 11.495C7.84295 11.205 8.32295 11.205 8.61295 11.495L10.9129 13.795L16.0529 8.655C16.3429 8.365 16.823 8.365 17.113 8.655C17.403 8.945 17.403 9.425 17.113 9.715L11.4429 15.385C11.3029 15.525 11.1129 15.605 10.9129 15.605Z" fill="#419000"/>
</svg>
