<svg width="27" height="33" viewBox="0 0 27 33" fill="none" xmlns="http://www.w3.org/2000/svg">
<path d="M19.2931 28.2867C19.7587 28.2867 20.069 27.86 19.9138 27.4334C19.8104 27.06 19.7069 26.6334 19.5518 26.26C18.8793 24.34 17.4311 22.42 15.7759 21.3534C14.9483 20.82 13.9656 20.4467 12.9311 20.5534C11.5345 20.7134 10.1897 21.9934 9.31038 23.06C8.2759 24.2867 7.60348 25.8334 7.13797 27.4334C7.03452 27.86 7.34486 28.2867 7.75865 28.2867H19.2931ZM20.4311 4.98002C20.7414 4.92669 21.0518 5.24669 20.9483 5.56669C20.1207 7.96669 18.8793 9.72669 17.1724 10.9C16.3449 11.4867 15.6207 12.18 15.1552 13.0867C15 13.4067 14.8449 13.78 14.7931 14.1534C14.7414 14.4734 14.7931 14.8467 14.5862 15.1134C14.3276 15.4334 13.8621 15.5934 13.5 15.54C13.0345 15.4867 12.5173 15.22 12.4138 14.74C12.3104 14.3134 12.3104 13.94 12.1552 13.5667C11.7414 12.4467 10.9138 11.5934 9.98279 10.9534C8.2759 9.78002 7.03452 8.02002 6.20693 5.62003C6.10348 5.30002 6.3621 4.98002 6.72417 5.03336C11.1724 5.83336 15.8276 5.83336 20.4311 4.98002Z" fill="#B07800"/>
<path d="M25.7069 29.8333H25.3966C25.3966 29.3533 25.3448 28.9267 25.2931 28.4467C25.0345 25.94 24.2586 23.5933 23.0172 21.5133C22.1897 20.18 21.2586 19.06 20.1724 18.1533C19.6552 17.7267 18.5172 16.82 18.569 16.34C18.569 16.2333 18.7241 15.9667 19.2931 15.54C21.7759 13.8333 23.4828 11.4333 24.6207 8.18C25.1897 6.58 25.4483 4.87333 25.5 3.11333H25.7069C26.431 3.11333 27 2.52667 27 1.78C27 1.03333 26.431 0.5 25.7069 0.5H1.2931C0.568965 0.5 0 1.08667 0 1.83333C0 2.58 0.568965 3.16667 1.2931 3.16667H1.5C1.55172 4.92667 1.86207 6.63333 2.37931 8.23333C3.46552 11.4867 5.22414 13.8867 7.7069 15.5933C8.27586 15.9667 8.43104 16.2867 8.43104 16.3933C8.43104 16.82 7.34483 17.7267 6.82759 18.2067C5.74138 19.1133 4.75862 20.2333 3.98276 21.5667C2.74138 23.6467 1.96552 25.94 1.7069 28.5C1.60345 28.9267 1.60345 29.4067 1.60345 29.8333H1.2931C0.568965 29.8333 0 30.42 0 31.1667C0 31.9133 0.568965 32.5 1.2931 32.5H25.7069C26.431 32.5 27 31.9133 27 31.1667C27 30.42 26.431 29.8333 25.7069 29.8333ZM3.87931 28.7133C4.08621 26.5267 4.75862 24.5533 5.84483 22.74C6.51724 21.62 7.34483 20.66 8.22414 19.9133C9.36207 19.0067 10.7069 17.8333 10.6552 16.2333C10.6034 15.2733 10.0345 14.42 8.94828 13.62C6.87931 12.2333 5.43104 10.1533 4.5 7.43333C4.03448 6.04667 3.77586 4.60667 3.72414 3.11333H23.2759C23.2241 4.60667 22.9655 6.04667 22.5 7.43333C21.569 10.2067 20.1207 12.2333 18.0517 13.62C16.9655 14.3667 16.3966 15.2733 16.3448 16.2333C16.2931 17.8333 17.6897 19.0067 18.7759 19.9133C19.6552 20.66 20.4828 21.62 21.1552 22.74C22.2414 24.5 22.9138 26.5267 23.1207 28.7133C23.1724 29.0867 23.1724 29.46 23.1724 29.8333H3.82759C3.82759 29.46 3.82759 29.0867 3.87931 28.7133Z" fill="#EBA000"/>
<path d="M13.5517 17.5133C13.9231 17.5133 14.2241 17.2029 14.2241 16.82C14.2241 16.4371 13.9231 16.1267 13.5517 16.1267C13.1804 16.1267 12.8793 16.4371 12.8793 16.82C12.8793 17.2029 13.1804 17.5133 13.5517 17.5133Z" fill="#EBA000"/>
<path d="M13.7069 19.1667C13.9926 19.1667 14.2241 18.9279 14.2241 18.6333C14.2241 18.3388 13.9926 18.1 13.7069 18.1C13.4212 18.1 13.1897 18.3388 13.1897 18.6333C13.1897 18.9279 13.4212 19.1667 13.7069 19.1667Z" fill="#EBA000"/>
</svg>
