<svg width="25" height="25" viewBox="0 0 25 25" fill="none" xmlns="http://www.w3.org/2000/svg">
<path d="M21.7367 5.2549C20.1267 5.0949 18.5167 4.9749 16.8967 4.8849V4.8749L16.6767 3.5749C16.5267 2.6549 16.3067 1.2749 13.9667 1.2749H11.3467C9.01666 1.2749 8.79666 2.5949 8.63666 3.5649L8.42666 4.8449C7.49666 4.9049 6.56666 4.9649 5.63666 5.0549L3.59666 5.2549C3.17666 5.2949 2.87666 5.6649 2.91666 6.0749C2.95666 6.4849 3.31666 6.7849 3.73666 6.7449L5.77666 6.5449C11.0167 6.0249 16.2967 6.2249 21.5967 6.7549C21.6267 6.7549 21.6467 6.7549 21.6767 6.7549C22.0567 6.7549 22.3867 6.4649 22.4267 6.0749C22.4567 5.6649 22.1567 5.2949 21.7367 5.2549Z" fill="#D40808"/>
<path opacity="0.3991" d="M19.8967 8.1649C19.6567 7.9149 19.3267 7.7749 18.9867 7.7749H6.34674C6.00674 7.7749 5.66674 7.9149 5.43674 8.1649C5.20674 8.4149 5.07674 8.7549 5.09674 9.1049L5.71674 19.3649C5.82674 20.8849 5.96674 22.7849 9.45674 22.7849H15.8767C19.3667 22.7849 19.5067 20.8949 19.6167 19.3649L20.2367 9.1149C20.2567 8.7549 20.1267 8.4149 19.8967 8.1649Z" fill="#D40808"/>
<path fill-rule="evenodd" clip-rule="evenodd" d="M10.2466 17.0249C10.2466 16.6107 10.5824 16.2749 10.9966 16.2749H14.3266C14.7408 16.2749 15.0766 16.6107 15.0766 17.0249C15.0766 17.4391 14.7408 17.7749 14.3266 17.7749H10.9966C10.5824 17.7749 10.2466 17.4391 10.2466 17.0249Z" fill="#D40808"/>
<path fill-rule="evenodd" clip-rule="evenodd" d="M9.4165 13.0249C9.4165 12.6107 9.75229 12.2749 10.1665 12.2749H15.1665C15.5807 12.2749 15.9165 12.6107 15.9165 13.0249C15.9165 13.4391 15.5807 13.7749 15.1665 13.7749H10.1665C9.75229 13.7749 9.4165 13.4391 9.4165 13.0249Z" fill="#D40808"/>
</svg>
