<svg width="24" height="24" viewBox="0 0 24 24" fill="none" xmlns="http://www.w3.org/2000/svg">
<path d="M12 12C14.7614 12 17 9.76142 17 7C17 4.23858 14.7614 2 12 2C9.23858 2 7 4.23858 7 7C7 9.76142 9.23858 12 12 12Z" fill="white"/>
<path d="M12.0002 14.5C6.99018 14.5 2.91016 17.86 2.91016 22C2.91016 22.28 3.13016 22.5 3.41016 22.5H20.5902C20.8702 22.5 21.0902 22.28 21.0902 22C21.0902 17.86 17.0102 14.5 12.0002 14.5Z" fill="white"/>
<path opacity="0.4" d="M23.2591 8.57138C22.3591 7.67138 21.6492 7.96138 21.0392 8.57138L17.4991 12.1114C17.3591 12.2514 17.2291 12.5114 17.1991 12.7014L17.0091 14.0514C16.9391 14.5414 17.2791 14.8814 17.7691 14.8114L19.1191 14.6214C19.3091 14.5914 19.5791 14.4614 19.7091 14.3214L23.2491 10.7814C23.8691 10.1814 24.1591 9.47138 23.2591 8.57138Z" fill="white"/>
</svg>
