<svg width="33" height="33" viewBox="0 0 33 33" fill="none" xmlns="http://www.w3.org/2000/svg">
<path d="M17.7 3.86001L17.66 3.95334L13.7934 12.9267H9.99335C9.08668 12.9267 8.23335 13.1 7.43335 13.4467L9.76668 7.87334L9.82002 7.75334L9.90002 7.54001C9.94002 7.44667 9.96668 7.36667 10.0067 7.30001C11.7534 3.26001 13.7267 2.34001 17.7 3.86001Z" fill="#3B8200"/>
<path d="M24.8865 13.1933C24.2865 13.02 23.6599 12.9267 23.0065 12.9267H13.7932L17.6599 3.95332L17.6999 3.85999C17.8865 3.92665 18.0865 4.01999 18.2865 4.08665L21.2332 5.32665C22.8732 6.00665 24.0199 6.71332 24.7265 7.56665C24.8465 7.72665 24.9532 7.87332 25.0599 8.04665C25.1799 8.23332 25.2732 8.41999 25.3265 8.61999C25.3799 8.73999 25.4199 8.84665 25.4465 8.96665C25.7932 10.1 25.5799 11.4733 24.8865 13.1933Z" fill="#419000"/>
<path d="M29.5132 19.4333V22.0333C29.5132 22.3 29.4999 22.5667 29.4866 22.82C29.2332 27.4867 26.6332 29.8333 21.6999 29.8333H11.2999C10.9666 29.8333 10.6599 29.8067 10.3532 29.7667C6.11324 29.4867 3.84657 27.22 3.55324 22.98C3.51324 22.66 3.48657 22.3533 3.48657 22.0333V19.4333C3.48657 16.7533 5.11324 14.4467 7.43324 13.4467C8.23324 13.1 9.08657 12.9267 9.99324 12.9267H23.0066C23.6599 12.9267 24.2866 13.02 24.8866 13.1933C27.5532 14.0067 29.5132 16.4867 29.5132 19.4333Z" fill="#223B58"/>
<path d="M9.76657 7.87332L7.43324 13.4467C5.11324 14.4467 3.48657 16.7533 3.48657 19.4333V15.5267C3.48657 11.74 6.17991 8.57999 9.76657 7.87332Z" fill="#1A2C42"/>
<path d="M29.5134 15.5267V19.4333C29.5134 16.4867 27.5534 14.0067 24.8867 13.1933C25.5801 11.4733 25.7934 10.1 25.4467 8.96666C25.42 8.84666 25.3801 8.74 25.3267 8.62C27.8201 9.91333 29.5134 12.54 29.5134 15.5267Z" fill="#1A2C42"/>
<path d="M19.8334 20.0867H17.5001V17.8333C17.5001 17.2867 17.0467 16.8333 16.5001 16.8333C15.9534 16.8333 15.5001 17.2867 15.5001 17.8333V20.0867H13.1667C12.6201 20.0867 12.1667 20.54 12.1667 21.0867C12.1667 21.6333 12.6201 22.0867 13.1667 22.0867H15.5001V24.5C15.5001 25.0467 15.9534 25.5 16.5001 25.5C17.0467 25.5 17.5001 25.0467 17.5001 24.5V22.0867H19.8334C20.3801 22.0867 20.8334 21.6333 20.8334 21.0867C20.8334 20.54 20.3801 20.0867 19.8334 20.0867Z" fill="#F5F5F5"/>
</svg>
