<svg width="71" height="70" viewBox="0 0 71 70" fill="none" xmlns="http://www.w3.org/2000/svg">
<path d="M38.1248 7.3501L38.0373 7.55426L29.579 27.1834H21.2665C19.2832 27.1834 17.4165 27.5626 15.6665 28.3209L20.7707 16.1293L20.8873 15.8668L21.0623 15.4001C21.1498 15.1959 21.2082 15.0209 21.2957 14.8751C25.1165 6.0376 29.4332 4.0251 38.1248 7.3501Z" fill="#567F40"/>
<path opacity="0.8" d="M53.8458 27.7668C52.5333 27.3876 51.1624 27.1834 49.7333 27.1834H29.5791L38.0374 7.55426L38.1249 7.3501C38.5333 7.49593 38.9708 7.7001 39.4083 7.84593L45.8541 10.5584C49.4416 12.0459 51.9499 13.5918 53.4958 15.4584C53.7583 15.8084 53.9916 16.1293 54.2249 16.5084C54.4874 16.9168 54.6916 17.3251 54.8083 17.7626C54.9249 18.0251 55.0124 18.2584 55.0708 18.5209C55.8291 21.0001 55.3624 24.0043 53.8458 27.7668Z" fill="#567F40"/>
<path d="M63.9665 41.4167V47.1042C63.9665 47.6875 63.9374 48.2708 63.9082 48.825C63.354 59.0333 57.6665 64.1667 46.8749 64.1667H24.1249C23.3957 64.1667 22.7249 64.1083 22.054 64.0208C12.779 63.4083 7.8207 58.45 7.17904 49.175C7.09154 48.475 7.0332 47.8042 7.0332 47.1042V41.4167C7.0332 35.5542 10.5915 30.5084 15.6665 28.3209C17.4165 27.5625 19.2832 27.1833 21.2665 27.1833H49.7332C51.1624 27.1833 52.5332 27.3875 53.8457 27.7667C59.679 29.5459 63.9665 34.9708 63.9665 41.4167Z" fill="#567F40"/>
<path opacity="0.4" d="M20.7707 16.1292L15.6665 28.3208C10.5915 30.5083 7.0332 35.5542 7.0332 41.4167V32.8708C7.0332 24.5875 12.9249 17.675 20.7707 16.1292Z" fill="#567F40"/>
<path opacity="0.4" d="M63.9665 32.8708V41.4166C63.9665 34.9708 59.679 29.5458 53.8457 27.7666C55.3624 24.0041 55.829 21 55.0707 18.5208C55.0124 18.2583 54.9249 18.025 54.8082 17.7625C60.2624 20.5916 63.9665 26.3375 63.9665 32.8708Z" fill="#567F40"/>
<path d="M42.7918 42.8459H37.6877V37.9167C37.6877 36.7209 36.696 35.7292 35.5002 35.7292C34.3043 35.7292 33.3127 36.7209 33.3127 37.9167V42.8459H28.2085C27.0127 42.8459 26.021 43.8376 26.021 45.0334C26.021 46.2292 27.0127 47.2209 28.2085 47.2209H33.3127V52.5001C33.3127 53.6959 34.3043 54.6876 35.5002 54.6876C36.696 54.6876 37.6877 53.6959 37.6877 52.5001V47.2209H42.7918C43.9877 47.2209 44.9793 46.2292 44.9793 45.0334C44.9793 43.8376 43.9877 42.8459 42.7918 42.8459Z" fill="#F3F8F0"/>
</svg>
