<svg width="521" height="521" viewBox="0 0 521 521" fill="none" xmlns="http://www.w3.org/2000/svg">
<path fill-rule="evenodd" clip-rule="evenodd" d="M126.318 286.98L106.057 275.83L96.1013 304.749L125.315 307.114L126.318 286.98Z" fill="#FC9F9F"/>
<path fill-rule="evenodd" clip-rule="evenodd" d="M126.318 286.98L106.057 275.83L125.315 307.114L126.318 286.98Z" fill="#20181F"/>
<path d="M118.497 459.821C159.807 459.821 193.296 426.333 193.296 385.023C193.296 343.713 159.807 310.224 118.497 310.224C77.1873 310.224 43.699 343.713 43.699 385.023C43.699 426.333 77.1873 459.821 118.497 459.821Z" fill="#4AB8D2"/>
<path fill-rule="evenodd" clip-rule="evenodd" d="M90.5541 302.931C98.8014 299.796 139.933 293.214 152.454 312.315C166.668 333.998 167.759 389.771 175.839 433.031C162.113 449.403 141.512 459.82 118.497 459.82C90.6278 459.82 66.2978 444.545 53.4294 421.916L91.9718 316.151L90.5541 302.931Z" fill="#223B58"/>
<path fill-rule="evenodd" clip-rule="evenodd" d="M127.983 238.327C137.983 238.327 146.101 253.212 146.101 271.546C146.101 289.881 140.696 297.215 130.503 299.251C119.922 301.365 109.198 282.068 109.198 282.068C109.198 282.068 89.6965 287.754 92.743 259.34C94.5906 242.108 111.929 252.527 111.929 252.527C111.929 252.527 121.714 238.327 127.983 238.327Z" fill="#FC9F9F"/>
<path fill-rule="evenodd" clip-rule="evenodd" d="M122.146 251.02H122.141L122.135 251.02H122.131L122.129 251.02L122.124 251.021L122.117 251.021L122.114 251.021L122.111 251.022L122.106 251.022L122.1 251.023L122.096 251.023L122.094 251.024L122.089 251.024L122.083 251.025L122.079 251.026L122.077 251.027L122.073 251.027L122.067 251.029L122.062 251.03L122.059 251.03L122.056 251.031L122.051 251.033L122.046 251.034L122.043 251.035L122.04 251.036L122.035 251.037L122.029 251.039L122.026 251.04L122.024 251.041L122.019 251.043L122.014 251.045L122.01 251.047L122.008 251.047L122.004 251.049L121.998 251.052L121.995 251.054L121.993 251.054L121.989 251.056L121.983 251.059L121.98 251.061L121.978 251.062L121.974 251.064L121.968 251.067L121.965 251.069L121.963 251.07L121.96 251.073L121.954 251.076L121.951 251.078L121.949 251.079L121.946 251.082L121.94 251.086L121.938 251.088L121.936 251.089L121.932 251.092L121.927 251.096L121.925 251.098L121.923 251.099L121.919 251.103L121.914 251.106L121.912 251.108L121.91 251.11L121.906 251.114L121.902 251.118L121.9 251.12L121.898 251.122L121.894 251.126L121.891 251.129L121.889 251.131L121.887 251.134L121.882 251.139L121.879 251.142L121.878 251.144L121.876 251.146L121.871 251.152L121.869 251.155L121.868 251.157L121.865 251.16L121.861 251.165L121.859 251.168L121.858 251.17L121.856 251.173L121.852 251.179L121.85 251.182L121.849 251.184L121.847 251.187L121.843 251.193L121.841 251.197L121.84 251.199L121.838 251.202L121.835 251.207L121.833 251.212L121.832 251.214L121.83 251.217L121.828 251.222L121.826 251.227L121.825 251.23L121.824 251.233L121.822 251.237L121.82 251.242L121.818 251.246L121.817 251.249L121.816 251.253L121.814 251.258L121.813 251.262L121.812 251.265L121.811 251.269L121.809 251.275L121.808 251.279L121.807 251.282L121.806 251.285L121.805 251.292L121.804 251.296L121.803 251.299L121.803 251.302L121.801 251.309L121.801 251.313L121.8 251.316L121.8 251.32L121.799 251.326L121.799 251.331L121.798 251.334L121.798 251.338L121.797 251.343L121.797 251.348L121.797 251.352L121.797 251.357L121.796 251.361C121.678 258.587 122.559 263.472 123.97 266.624C124.939 268.789 126.163 270.154 127.488 270.917C129.995 272.361 132.894 271.675 135.262 270.037C137.314 268.618 138.957 266.489 139.595 264.485C141.569 267.664 142.944 269.227 143.848 269.696C144.234 269.895 144.56 269.923 144.829 269.84C145.091 269.759 145.313 269.57 145.481 269.27C145.676 268.921 145.803 268.4 145.861 267.749C146.241 263.499 143.794 253.334 143.794 253.334C143.777 253.264 143.739 253.201 143.684 253.153C143.63 253.106 143.562 253.077 143.49 253.07L122.177 251.022L122.172 251.021L122.167 251.021L122.163 251.021L122.159 251.02L122.153 251.02L122.149 251.02H122.146ZM122.485 251.749C122.405 258.628 123.245 263.305 124.603 266.341C125.498 268.339 126.611 269.611 127.834 270.315C130.104 271.623 132.723 270.949 134.868 269.466C137.045 267.96 138.749 265.611 139.118 263.538C139.13 263.468 139.163 263.404 139.213 263.354C139.263 263.304 139.327 263.27 139.396 263.257C139.465 263.244 139.537 263.253 139.602 263.282C139.666 263.311 139.72 263.359 139.756 263.419C141.855 266.896 143.247 268.602 144.168 269.079C144.349 269.173 144.498 269.216 144.624 269.177C144.741 269.141 144.822 269.036 144.894 268.895C145.041 268.61 145.125 268.195 145.17 267.687C145.509 263.887 143.54 255.283 143.176 253.737L122.485 251.749Z" fill="black"/>
<path fill-rule="evenodd" clip-rule="evenodd" d="M146.101 234.162C158.393 238.675 156.291 255.258 153.541 258.026C147.119 264.494 141.709 256.293 134.98 247.598C131.15 242.648 125.135 242.678 120.892 241.99C121.555 260.715 115.459 258.202 112.33 265.836C111.444 259.568 102.21 244.446 98.7384 258.512C94.7111 274.827 103.646 282.106 109.545 280.464C109.452 280.266 110.07 283.793 110.07 283.793C110.07 283.793 89.8963 299.233 86.9958 276.622C76.0502 271.444 75.4852 261.912 84.653 248.298C78.3345 216.374 121.337 227.478 146.101 217.974C159.191 212.95 149.607 235.692 146.101 234.162Z" fill="#20181F"/>
<path fill-rule="evenodd" clip-rule="evenodd" d="M121.043 275.959L141.242 282.82C139.641 286.071 135.421 290.233 132.177 288.778C126.614 286.282 121.043 275.959 121.043 275.959Z" fill="white"/>
<path fill-rule="evenodd" clip-rule="evenodd" d="M107.273 272.159C107.273 272.159 108.015 267.207 106.959 264.048C106.581 262.918 105.972 262.014 105.063 261.58C104.16 261.149 102.941 261.165 101.309 261.956C101.227 261.997 101.165 262.068 101.136 262.154C101.106 262.241 101.112 262.335 101.152 262.418C101.192 262.5 101.262 262.563 101.349 262.593C101.435 262.624 101.529 262.619 101.612 262.58C102.984 261.915 104.004 261.844 104.764 262.206C105.515 262.565 105.989 263.334 106.301 264.268C107.314 267.301 106.587 272.055 106.587 272.055C106.58 272.1 106.583 272.146 106.593 272.19C106.604 272.235 106.624 272.276 106.651 272.313C106.678 272.35 106.712 272.381 106.751 272.404C106.79 272.428 106.833 272.443 106.878 272.45C106.923 272.457 106.969 272.455 107.014 272.444C107.058 272.433 107.099 272.413 107.136 272.386C107.173 272.359 107.204 272.325 107.227 272.286C107.251 272.247 107.267 272.204 107.273 272.159Z" fill="black"/>
<path fill-rule="evenodd" clip-rule="evenodd" d="M107.43 267.818C107.43 267.818 104.271 264.575 101.677 267.605C101.646 267.639 101.623 267.68 101.608 267.723C101.593 267.767 101.587 267.813 101.59 267.859C101.593 267.905 101.605 267.95 101.626 267.991C101.647 268.032 101.675 268.069 101.71 268.099C101.745 268.129 101.786 268.152 101.83 268.166C101.874 268.18 101.92 268.185 101.966 268.181C102.012 268.177 102.057 268.164 102.098 268.142C102.138 268.121 102.174 268.092 102.204 268.056C104.337 265.565 106.93 268.299 106.93 268.299C106.994 268.366 107.081 268.404 107.173 268.406C107.265 268.408 107.354 268.373 107.421 268.309C107.487 268.245 107.525 268.158 107.527 268.065C107.529 267.973 107.494 267.885 107.43 267.818ZM136.725 251.435L141.077 273.41L135.371 275.504C135.328 275.52 135.288 275.544 135.255 275.574C135.221 275.605 135.193 275.642 135.174 275.684C135.154 275.725 135.143 275.77 135.141 275.816C135.139 275.862 135.147 275.908 135.162 275.951C135.178 275.994 135.202 276.033 135.233 276.067C135.264 276.1 135.302 276.127 135.344 276.146C135.385 276.166 135.43 276.176 135.476 276.178C135.522 276.179 135.567 276.172 135.61 276.156L141.595 273.959C141.672 273.931 141.737 273.876 141.778 273.804C141.818 273.732 141.832 273.647 141.816 273.566L137.406 251.3C137.386 251.212 137.332 251.135 137.256 251.086C137.181 251.037 137.089 251.019 137 251.037C136.912 251.054 136.833 251.106 136.782 251.18C136.731 251.254 136.71 251.346 136.725 251.435Z" fill="black"/>
<path d="M130.502 266.392C131.826 266.392 132.9 263.609 132.9 260.177C132.9 256.746 131.826 253.963 130.502 253.963C129.178 253.963 128.105 256.746 128.105 260.177C128.105 263.609 129.178 266.392 130.502 266.392Z" fill="#20181F"/>
<path fill-rule="evenodd" clip-rule="evenodd" d="M141.413 256.013C142.239 255.999 142.937 257.576 142.971 259.533C143.005 261.49 142.363 263.09 141.537 263.105C140.712 263.119 140.014 261.542 139.979 259.585C139.945 257.628 140.587 256.028 141.413 256.013Z" fill="#20181F"/>
<path fill-rule="evenodd" clip-rule="evenodd" d="M183.791 316.898C172.059 306.64 144.909 302.68 129.595 299.794C95.7822 293.421 86.8164 321.341 109.221 340.591C121.041 350.747 146.692 364.728 162.122 366.913C190.895 370.989 205.382 335.777 183.791 316.898Z" fill="#223B58"/>
<path fill-rule="evenodd" clip-rule="evenodd" d="M113.369 299.163C103.243 301.168 97.5382 307.646 96.6732 315.602C95.8135 323.511 99.7564 332.916 108.994 340.854C120.854 351.043 146.592 365.064 162.073 367.257C162.164 367.27 162.257 367.246 162.33 367.19C162.404 367.135 162.453 367.053 162.465 366.962C162.478 366.871 162.454 366.778 162.399 366.704C162.344 366.631 162.262 366.582 162.17 366.569C146.791 364.391 121.228 350.45 109.447 340.327C100.421 332.572 96.5233 323.404 97.3632 315.678C98.1979 307.999 103.733 301.779 113.504 299.844C113.594 299.826 113.673 299.773 113.725 299.696C113.776 299.62 113.794 299.526 113.777 299.436C113.759 299.345 113.706 299.266 113.629 299.215C113.553 299.164 113.459 299.145 113.369 299.163Z" fill="black"/>
<path fill-rule="evenodd" clip-rule="evenodd" d="M243.978 222.025C247.603 221.599 249.041 227.111 248.807 227.811C250.108 230.662 251.343 233.742 249.693 239.092C252.192 237.956 253.342 251.121 253.117 260.219C252.831 271.744 261.616 275.565 257.132 290.809C255.774 295.427 246.142 293.64 243.047 293.64C235.786 293.64 230.823 278.589 230.823 258.473C230.823 238.357 236.781 222.87 243.978 222.025Z" fill="#FC9F9F"/>
<path fill-rule="evenodd" clip-rule="evenodd" d="M249.859 238.658C249.859 238.658 248.027 237.471 246.226 238.245C245.463 238.572 244.696 239.248 244.088 240.537C242.832 243.205 242.239 248.65 243.842 259.391C243.848 259.436 243.863 259.48 243.887 259.519C243.91 259.558 243.941 259.593 243.978 259.62C244.014 259.647 244.056 259.667 244.101 259.678C244.145 259.69 244.191 259.692 244.236 259.685C244.282 259.678 244.325 259.663 244.364 259.639C244.404 259.615 244.438 259.584 244.465 259.547C244.492 259.51 244.511 259.469 244.522 259.424C244.533 259.38 244.535 259.333 244.528 259.288C242.959 248.775 243.486 243.445 244.716 240.833C245.228 239.746 245.856 239.159 246.499 238.883C247.978 238.248 249.479 239.239 249.479 239.239C249.518 239.264 249.56 239.281 249.605 239.29C249.65 239.298 249.696 239.298 249.74 239.288C249.785 239.279 249.827 239.261 249.865 239.235C249.903 239.209 249.935 239.177 249.96 239.138C249.985 239.1 250.002 239.058 250.01 239.013C250.019 238.968 250.018 238.922 250.009 238.877C250 238.833 249.982 238.791 249.956 238.753C249.93 238.715 249.897 238.683 249.859 238.658Z" fill="black"/>
<path fill-rule="evenodd" clip-rule="evenodd" d="M249.037 227.889C249.037 227.889 247.205 227.017 244.994 227.703C243.549 228.152 241.929 229.265 240.576 231.769C238.403 235.789 236.897 243.496 237.986 258.027C237.989 258.073 238.001 258.117 238.022 258.158C238.043 258.199 238.071 258.235 238.105 258.265C238.14 258.294 238.18 258.317 238.223 258.331C238.267 258.345 238.312 258.351 238.358 258.348C238.403 258.344 238.447 258.332 238.488 258.311C238.529 258.291 238.565 258.263 238.595 258.228C238.625 258.194 238.647 258.153 238.661 258.11C238.676 258.067 238.681 258.021 238.678 257.976C237.605 243.658 239.046 236.059 241.186 232.099C242.421 229.813 243.881 228.775 245.2 228.366C247.136 227.765 248.741 228.516 248.741 228.516C248.824 228.555 248.919 228.56 249.006 228.529C249.092 228.498 249.163 228.434 249.202 228.35C249.241 228.267 249.246 228.172 249.215 228.085C249.184 227.999 249.12 227.928 249.037 227.889Z" fill="black"/>
<path fill-rule="evenodd" clip-rule="evenodd" d="M248.196 260.337L235.688 257.664C235.598 257.644 235.504 257.662 235.426 257.712C235.349 257.762 235.295 257.841 235.276 257.931C235.256 258.021 235.274 258.114 235.324 258.192C235.374 258.269 235.453 258.323 235.543 258.342L248.051 261.015C248.095 261.026 248.142 261.027 248.187 261.019C248.233 261.012 248.276 260.995 248.315 260.97C248.354 260.945 248.388 260.913 248.414 260.875C248.44 260.838 248.459 260.795 248.469 260.75C248.478 260.705 248.479 260.658 248.47 260.613C248.462 260.568 248.444 260.524 248.419 260.486C248.393 260.447 248.36 260.414 248.322 260.389C248.284 260.363 248.241 260.345 248.196 260.337Z" fill="black"/>
<path fill-rule="evenodd" clip-rule="evenodd" d="M169 314.686C131.198 340.52 154.618 384.398 194.163 357.772C221.185 339.577 257.132 292.46 257.132 292.46C252.431 280.802 242.071 274.588 230.822 272.751C230.822 272.751 190.979 299.665 169 314.686Z" fill="#223B58"/>
<path fill-rule="evenodd" clip-rule="evenodd" d="M230.628 272.463C230.628 272.463 190.784 299.378 168.804 314.399C164.96 317.026 161.746 319.838 159.113 322.744C159.082 322.778 159.058 322.817 159.043 322.86C159.028 322.903 159.021 322.949 159.023 322.994C159.025 323.04 159.036 323.085 159.056 323.126C159.075 323.167 159.103 323.204 159.136 323.235C159.17 323.266 159.21 323.289 159.253 323.305C159.296 323.32 159.341 323.327 159.387 323.324C159.433 323.322 159.477 323.311 159.518 323.291C159.56 323.272 159.597 323.244 159.627 323.21C162.226 320.341 165.401 317.565 169.196 314.972C191.175 299.951 231.017 273.038 231.017 273.038C231.091 272.986 231.143 272.906 231.159 272.817C231.176 272.727 231.156 272.635 231.105 272.559C231.055 272.484 230.976 272.431 230.887 272.413C230.797 272.395 230.705 272.413 230.628 272.463Z" fill="#20181F"/>
<path d="M399.992 449.091C442.965 449.091 477.802 414.255 477.802 371.282C477.802 328.309 442.965 293.472 399.992 293.472C357.02 293.472 322.183 328.309 322.183 371.282C322.183 414.255 357.02 449.091 399.992 449.091Z" fill="#80BE3D"/>
<path fill-rule="evenodd" clip-rule="evenodd" d="M394.619 321.43C401.433 307.431 393.714 289.575 369.022 304.008C361.57 308.364 335.283 324.831 321.48 336.034C282.738 367.48 314.028 406.786 352.082 373.545C366.56 360.899 390.499 329.894 394.619 321.43Z" fill="#4AB8D2"/>
<path fill-rule="evenodd" clip-rule="evenodd" d="M293.616 285.845C293.616 285.845 289.847 297.037 286.036 302.332C282.226 307.626 265.485 310.619 265.485 310.619C265.485 310.619 268.832 293.63 274.011 289.664C281.761 283.728 293.616 285.845 293.616 285.845Z" fill="#20181F"/>
<path fill-rule="evenodd" clip-rule="evenodd" d="M283.909 286.959L292.206 296.494L277.99 312.949C277.99 312.949 260.24 298.344 258.938 293.545C257.635 288.747 266.581 248.84 274.232 236.496C283.144 222.118 283.147 238.788 283.147 238.788C287.286 236.766 285.871 248.688 283.826 261.095C291.491 255.77 291.599 269.776 283.909 286.959Z" fill="#FC9F9F"/>
<path fill-rule="evenodd" clip-rule="evenodd" d="M283.614 260.823C283.614 260.823 276.908 266.083 276.949 273.378C275.418 273.869 267.587 276.772 265.151 285.385C265.138 285.428 265.135 285.474 265.14 285.52C265.145 285.565 265.16 285.609 265.182 285.648C265.204 285.688 265.234 285.723 265.27 285.751C265.305 285.78 265.346 285.801 265.39 285.813C265.434 285.825 265.48 285.829 265.525 285.824C265.57 285.818 265.614 285.804 265.654 285.782C265.694 285.76 265.729 285.73 265.757 285.694C265.785 285.658 265.806 285.617 265.819 285.574C268.415 276.395 277.391 273.969 277.391 273.969C277.466 273.949 277.532 273.904 277.579 273.841C277.625 273.779 277.649 273.702 277.647 273.624C277.448 266.513 284.041 261.369 284.041 261.369C284.078 261.341 284.108 261.306 284.131 261.267C284.154 261.227 284.168 261.183 284.174 261.138C284.18 261.092 284.177 261.046 284.164 261.002C284.152 260.958 284.131 260.916 284.103 260.88C284.075 260.844 284.04 260.814 284 260.792C283.96 260.769 283.916 260.755 283.87 260.749C283.825 260.744 283.779 260.748 283.735 260.76C283.691 260.773 283.649 260.794 283.614 260.823ZM282.907 238.519C281.253 239.358 279.898 241.474 278.74 244.297C277.057 248.4 275.748 254.005 274.322 259.136C274.31 259.18 274.306 259.226 274.312 259.271C274.317 259.316 274.332 259.36 274.354 259.399C274.376 259.439 274.406 259.474 274.442 259.502C274.478 259.53 274.519 259.551 274.563 259.563C274.607 259.575 274.653 259.579 274.698 259.573C274.744 259.568 274.787 259.553 274.827 259.531C274.867 259.508 274.901 259.478 274.93 259.442C274.958 259.407 274.978 259.366 274.991 259.322C276.409 254.218 277.708 248.641 279.382 244.56C280.462 241.928 281.679 239.921 283.222 239.138C283.262 239.118 283.299 239.089 283.329 239.055C283.359 239.02 283.381 238.98 283.396 238.937C283.41 238.893 283.416 238.847 283.412 238.802C283.409 238.756 283.396 238.712 283.376 238.671C283.355 238.63 283.326 238.594 283.292 238.564C283.257 238.534 283.217 238.512 283.173 238.498C283.13 238.484 283.084 238.478 283.038 238.482C282.993 238.486 282.948 238.498 282.907 238.519ZM266.184 261.432C266.211 261.441 266.333 261.484 266.47 261.534C268.316 262.202 277.543 265.634 277.543 265.634C277.629 265.666 277.724 265.662 277.808 265.624C277.892 265.586 277.957 265.516 277.989 265.43C278.021 265.343 278.018 265.248 277.979 265.164C277.941 265.08 277.871 265.015 277.785 264.983C277.785 264.983 268.553 261.549 266.707 260.881C266.505 260.808 266.383 260.766 266.361 260.76C266.181 260.713 266.082 260.802 266.064 260.816C265.964 260.889 265.922 260.985 265.922 261.095C265.922 261.173 265.948 261.248 265.995 261.308C266.043 261.369 266.109 261.413 266.184 261.432Z" fill="#20181F"/>
<path fill-rule="evenodd" clip-rule="evenodd" d="M293.792 285.845C288.1 299.826 277.39 306.085 265.485 310.506C265.485 310.506 285.501 346.665 293.782 362.396C317.027 406.548 361.703 383.566 336.563 339.737C326.998 323.062 293.792 285.845 293.792 285.845Z" fill="#4AB8D2"/>
<path fill-rule="evenodd" clip-rule="evenodd" d="M338.938 419.499L349.51 390.046C349.51 390.046 336.154 374.472 338.073 365.72C345.381 332.38 384.388 298.943 384.388 298.943C403.101 295.234 434.551 302.475 442.941 320.818C453.599 344.119 458.585 390.415 451.67 429.431C437.924 441.658 419.819 449.091 399.992 449.091C375.251 449.091 353.193 437.519 338.938 419.499Z" fill="#4AB8D2"/>
<path fill-rule="evenodd" clip-rule="evenodd" d="M339.264 419.617L349.837 390.164C349.857 390.106 349.862 390.044 349.851 389.984C349.84 389.923 349.813 389.867 349.774 389.821C349.774 389.821 344.99 384.243 341.575 377.9C339.33 373.729 337.659 369.23 338.411 365.795C345.7 332.545 384.613 299.207 384.613 299.207C384.648 299.178 384.677 299.142 384.698 299.101C384.719 299.06 384.732 299.016 384.735 298.97C384.739 298.924 384.734 298.878 384.72 298.835C384.706 298.791 384.683 298.751 384.653 298.716C384.623 298.681 384.587 298.653 384.546 298.632C384.505 298.612 384.461 298.599 384.415 298.596C384.369 298.593 384.323 298.598 384.28 298.613C384.236 298.627 384.196 298.65 384.162 298.68C384.162 298.68 345.062 332.216 337.734 365.646C336.952 369.213 338.633 373.898 340.964 378.229C344.079 384.015 348.322 389.172 349.116 390.118L338.611 419.382C338.58 419.469 338.584 419.564 338.624 419.648C338.663 419.731 338.734 419.795 338.82 419.826C338.907 419.857 339.002 419.853 339.086 419.814C339.169 419.774 339.233 419.704 339.264 419.617Z" fill="black"/>
<path fill-rule="evenodd" clip-rule="evenodd" d="M358.34 378.359C358.34 378.359 347.982 366.775 350.756 360.138C356.351 346.756 396.371 298.002 396.371 298.002C409.003 299.012 416.973 300.342 426.653 305.351C426.653 305.351 401.981 327.237 358.34 378.359Z" fill="#1886A0"/>
<path fill-rule="evenodd" clip-rule="evenodd" d="M448.706 326.767C440.408 304.115 417.913 311.164 411.961 331.665C408.174 344.71 408.041 406.337 408.808 435.181C410.376 494.206 468.422 489.172 464.626 431.217C462.589 400.105 453.723 340.462 448.706 326.767Z" fill="#4AB8D2"/>
<path fill-rule="evenodd" clip-rule="evenodd" d="M436.722 313.02C427.047 310.035 415.632 317.777 411.628 331.568C407.837 344.627 407.693 406.317 408.461 435.19C409.253 464.985 424.388 478.548 438.756 477.413C453.119 476.278 466.888 460.435 464.973 431.195C464.971 431.149 464.959 431.104 464.939 431.062C464.919 431.021 464.891 430.984 464.857 430.953C464.823 430.923 464.783 430.899 464.739 430.884C464.696 430.869 464.65 430.863 464.604 430.866C464.558 430.869 464.513 430.881 464.472 430.902C464.431 430.922 464.394 430.951 464.364 430.986C464.334 431.02 464.311 431.061 464.297 431.104C464.282 431.148 464.277 431.194 464.28 431.24C466.161 459.954 452.806 475.606 438.702 476.721C424.605 477.835 409.932 464.403 409.155 435.172C408.389 406.357 408.511 344.794 412.295 331.762C416.173 318.403 427.146 310.792 436.518 313.683C436.606 313.711 436.701 313.702 436.782 313.659C436.864 313.616 436.924 313.542 436.952 313.454C436.979 313.366 436.97 313.271 436.927 313.19C436.884 313.108 436.81 313.048 436.722 313.02Z" fill="black"/>
<path fill-rule="evenodd" clip-rule="evenodd" d="M358.044 378.539L367.111 393.379C367.135 393.419 367.166 393.453 367.203 393.481C367.239 393.508 367.281 393.528 367.326 393.539C367.371 393.551 367.417 393.553 367.463 393.546C367.508 393.539 367.552 393.523 367.591 393.499C367.63 393.475 367.665 393.443 367.692 393.406C367.719 393.369 367.738 393.326 367.748 393.282C367.759 393.237 367.76 393.19 367.752 393.145C367.745 393.099 367.728 393.056 367.703 393.017L358.636 378.177C358.588 378.099 358.511 378.043 358.421 378.021C358.332 378 358.238 378.015 358.159 378.063C358.081 378.111 358.025 378.188 358.003 378.277C357.981 378.366 357.996 378.461 358.044 378.539ZM417.629 209.644C445.832 219.188 440.005 259.294 440.005 259.294C439.741 298.343 369.988 282.754 361.934 273.633C351.584 261.911 371.889 256.412 373.679 239.933C347.528 235.898 381.351 197.367 417.629 209.644Z" fill="#20181F"/>
<path fill-rule="evenodd" clip-rule="evenodd" d="M423.142 269.498L394.517 282.375L390.27 308.427C390.522 317.998 401.272 317.76 423.376 304.23L423.142 269.498Z" fill="#FC9F9F"/>
<path fill-rule="evenodd" clip-rule="evenodd" d="M392.498 294.761C402.955 292.219 407.863 286.208 407.157 276.688L394.517 282.374L392.498 294.761Z" fill="black"/>
<path fill-rule="evenodd" clip-rule="evenodd" d="M410.361 222.073C422.788 222.073 422.975 244.981 423.377 261.187C423.993 286.017 379.625 295.571 375.929 289.87C373.597 281.6 374.964 274.085 376.197 267.241C376.197 267.241 373.54 267.693 373.854 266.119C374.825 261.255 380.001 249.125 382.993 242.844C389.964 228.209 397.934 222.073 410.361 222.073Z" fill="#FC9F9F"/>
<path fill-rule="evenodd" clip-rule="evenodd" d="M376.138 266.899C376.138 266.899 375.273 267.051 374.642 266.861C374.461 266.807 374.295 266.729 374.218 266.574C374.169 266.474 374.162 266.346 374.194 266.187C375.161 261.339 380.324 249.252 383.305 242.993C383.345 242.91 383.35 242.815 383.319 242.728C383.288 242.641 383.225 242.57 383.141 242.53C383.1 242.511 383.056 242.5 383.01 242.497C382.965 242.495 382.919 242.501 382.876 242.517C382.789 242.547 382.718 242.611 382.679 242.694C379.677 248.997 374.487 261.17 373.513 266.051C373.445 266.395 373.489 266.667 373.597 266.883C373.757 267.204 374.066 267.413 374.442 267.526C375.206 267.756 376.254 267.583 376.254 267.583C376.299 267.575 376.342 267.559 376.38 267.535C376.419 267.51 376.452 267.479 376.479 267.441C376.505 267.404 376.524 267.362 376.534 267.318C376.544 267.273 376.545 267.227 376.538 267.183C376.53 267.138 376.514 267.095 376.49 267.056C376.465 267.018 376.434 266.984 376.396 266.958C376.359 266.931 376.317 266.913 376.273 266.902C376.229 266.892 376.183 266.891 376.138 266.899Z" fill="black"/>
<path d="M388.094 259.3C389.459 259.3 390.566 257.009 390.566 254.183C390.566 251.357 389.459 249.066 388.094 249.066C386.728 249.066 385.622 251.357 385.622 254.183C385.622 257.009 386.728 259.3 388.094 259.3Z" fill="black"/>
<path fill-rule="evenodd" clip-rule="evenodd" d="M387.977 248.931C387.977 248.931 386.945 249.196 385.75 249.102C384.993 249.043 384.163 248.843 383.514 248.304C383.407 248.216 383.27 248.174 383.133 248.186C382.996 248.199 382.869 248.266 382.781 248.372C382.692 248.478 382.65 248.615 382.663 248.753C382.676 248.89 382.742 249.017 382.849 249.105C383.671 249.787 384.711 250.065 385.669 250.14C387.047 250.248 388.237 249.939 388.237 249.939C388.305 249.923 388.368 249.893 388.423 249.852C388.479 249.812 388.526 249.76 388.561 249.701C388.597 249.642 388.62 249.576 388.63 249.508C388.64 249.439 388.636 249.37 388.619 249.303C388.602 249.236 388.572 249.173 388.53 249.118C388.488 249.063 388.436 249.017 388.376 248.983C388.316 248.948 388.25 248.926 388.182 248.917C388.113 248.908 388.044 248.913 387.977 248.931Z" fill="black"/>
<path fill-rule="evenodd" clip-rule="evenodd" d="M377.026 276.25C377.026 276.25 380.792 284.618 383.657 283.443C386.522 282.269 394.217 269.203 394.217 269.203L377.026 276.25Z" fill="white"/>
<path fill-rule="evenodd" clip-rule="evenodd" d="M419.284 209.852C445.96 223.077 440.004 259.294 440.004 259.294C455.505 278.132 386.965 308.994 399.459 232.563C399.459 232.563 359.352 253.85 364.882 225.317C367.966 209.402 405.571 203.053 419.284 209.852Z" fill="#20181F"/>
<path fill-rule="evenodd" clip-rule="evenodd" d="M357.69 444.162C340.263 445.911 331.356 455.798 311.944 454.364C310.992 459.928 314.279 464.007 323.794 467.591L308.395 482.251C304.884 486.195 310.981 491.44 314.012 489.374C307.916 494.219 314.93 505.074 324.02 497.159C325.408 501.019 328.673 502.243 336.307 497.327C343.277 506.512 367.787 478.234 367.787 478.234L357.69 444.162Z" fill="#FC9F9F"/>
<path fill-rule="evenodd" clip-rule="evenodd" d="M349.492 445.42C357.059 451.605 362.363 463.576 363.529 486.122C363.529 486.122 393.58 489.356 422.127 485.162C480.546 476.579 468.51 408.367 411.419 419.034C380.77 424.76 349.492 445.42 349.492 445.42Z" fill="#4AB8D2"/>
<path fill-rule="evenodd" clip-rule="evenodd" d="M432.196 418.366C426.129 417.243 419.161 417.234 411.356 418.692C380.645 424.43 349.301 445.13 349.301 445.13C349.225 445.181 349.172 445.26 349.153 445.35C349.135 445.44 349.153 445.533 349.204 445.61C349.255 445.687 349.333 445.74 349.423 445.759C349.513 445.777 349.607 445.759 349.684 445.709C349.684 445.709 380.898 425.089 411.483 419.375C419.193 417.934 426.077 417.939 432.07 419.048C432.115 419.057 432.161 419.057 432.206 419.047C432.251 419.038 432.293 419.02 432.331 418.994C432.369 418.969 432.402 418.936 432.427 418.897C432.452 418.859 432.469 418.816 432.477 418.771C432.486 418.726 432.485 418.679 432.475 418.634C432.466 418.59 432.447 418.547 432.421 418.509C432.395 418.472 432.362 418.44 432.323 418.415C432.284 418.39 432.241 418.374 432.196 418.366Z" fill="black"/>
<path fill-rule="evenodd" clip-rule="evenodd" d="M314.252 489.626L330.444 474.237C330.51 474.174 330.549 474.086 330.551 473.994C330.554 473.902 330.52 473.813 330.456 473.747C330.393 473.68 330.305 473.641 330.213 473.639C330.121 473.636 330.032 473.671 329.966 473.734L313.774 489.123C313.707 489.186 313.668 489.273 313.666 489.365C313.664 489.457 313.698 489.547 313.761 489.613C313.825 489.68 313.912 489.719 314.004 489.721C314.096 489.724 314.185 489.689 314.252 489.626ZM324.303 497.423L338.152 480.649C338.21 480.578 338.237 480.487 338.228 480.396C338.218 480.305 338.174 480.222 338.103 480.164C338.033 480.105 337.942 480.077 337.851 480.086C337.76 480.094 337.676 480.138 337.617 480.207L323.768 496.981C323.71 497.052 323.683 497.143 323.692 497.234C323.702 497.325 323.746 497.409 323.817 497.467C323.887 497.525 323.978 497.553 324.069 497.545C324.16 497.537 324.244 497.493 324.303 497.423ZM323.944 467.817L333.904 460.372C333.941 460.345 333.971 460.311 333.995 460.271C334.018 460.232 334.033 460.189 334.04 460.144C334.046 460.099 334.044 460.053 334.033 460.009C334.021 459.964 334.002 459.923 333.974 459.886C333.947 459.85 333.913 459.819 333.874 459.796C333.835 459.773 333.791 459.757 333.746 459.751C333.701 459.744 333.655 459.747 333.611 459.758C333.567 459.769 333.525 459.789 333.489 459.816L323.528 467.261C323.456 467.317 323.409 467.398 323.396 467.489C323.384 467.579 323.407 467.671 323.462 467.744C323.517 467.817 323.598 467.865 323.688 467.879C323.778 467.893 323.87 467.87 323.944 467.817ZM336.639 497.4L345.741 484.309C345.767 484.272 345.785 484.23 345.795 484.185C345.805 484.141 345.805 484.095 345.797 484.05C345.789 484.005 345.772 483.962 345.748 483.924C345.723 483.886 345.691 483.852 345.654 483.826C345.617 483.8 345.574 483.782 345.53 483.772C345.485 483.763 345.439 483.762 345.394 483.77C345.35 483.778 345.307 483.795 345.268 483.819C345.23 483.844 345.197 483.876 345.171 483.913L336.069 497.004C336.016 497.08 335.996 497.173 336.012 497.264C336.028 497.354 336.08 497.435 336.156 497.487C336.231 497.54 336.325 497.56 336.415 497.544C336.506 497.528 336.586 497.476 336.639 497.4Z" fill="#20181F"/>
<path fill-rule="evenodd" clip-rule="evenodd" d="M330.428 473.718C330.365 473.666 330.287 473.637 330.205 473.637C330.124 473.637 330.066 473.663 330.025 473.688C329.984 473.713 329.685 474.012 329.991 474.258C330.016 474.278 330.183 474.391 330.467 474.576C333.138 476.319 346.741 485.033 346.741 485.033C346.819 485.083 346.913 485.1 347.003 485.08C347.047 485.07 347.089 485.052 347.127 485.026C347.164 485 347.196 484.967 347.221 484.928C347.245 484.89 347.262 484.847 347.27 484.802C347.278 484.757 347.277 484.711 347.268 484.667C347.258 484.622 347.239 484.58 347.213 484.543C347.187 484.505 347.154 484.474 347.116 484.449C347.116 484.449 333.516 475.737 330.847 473.995C330.706 473.903 330.567 473.811 330.428 473.718ZM330.424 474.254C330.365 474.302 330.288 474.331 330.205 474.331C330.309 474.331 330.377 474.292 330.424 474.254ZM330.548 474.038C330.537 474.109 330.504 474.175 330.454 474.226C330.504 474.176 330.537 474.114 330.548 474.038Z" fill="#20181F"/>
<path fill-rule="evenodd" clip-rule="evenodd" d="M372.574 122.487L366.065 125.132L367.376 141.104L374.313 137.649L372.574 122.487Z" fill="#0062CE"/>
<path fill-rule="evenodd" clip-rule="evenodd" d="M384.581 102.608L380.46 103.958L378.496 116.249L382.995 114.326L384.581 102.608ZM363.828 170.419L363.601 166.089L352.248 160.984L352.93 165.829L363.828 170.419Z" fill="#00BB86"/>
<path fill-rule="evenodd" clip-rule="evenodd" d="M365.245 190.019L360.386 185.469L343.05 192.122L348.934 196.751L365.245 190.019Z" fill="#FC9F9F"/>
<path fill-rule="evenodd" clip-rule="evenodd" d="M155.131 120.927L160.594 125.345L154.711 140.252L149.072 134.935L155.131 120.927Z" fill="#0062CE"/>
<path fill-rule="evenodd" clip-rule="evenodd" d="M151.882 71.7686L156.899 77.1379L149.204 95.1128L144.115 88.6565L151.882 71.7686ZM160.594 177.765L160.822 173.435L172.175 168.33L171.493 173.175L160.594 177.765Z" fill="#00BB86"/>
<path fill-rule="evenodd" clip-rule="evenodd" d="M156.899 201.302L161.758 196.751L179.094 203.404L173.21 208.033L156.899 201.302Z" fill="#FC9F9F"/>
<path d="M266.267 212.013C319.167 212.013 362.051 169.13 362.051 116.23C362.051 63.3297 319.167 20.4458 266.267 20.4458C213.367 20.4458 170.483 63.3297 170.483 116.23C170.483 169.13 213.367 212.013 266.267 212.013Z" fill="#1B2F46"/>
<path fill-rule="evenodd" clip-rule="evenodd" d="M295.178 101.235L331.614 118.996C319.816 141.494 298.466 161.61 280.915 177.471L258.286 156.561C258.286 156.561 251.089 152.208 237.559 145.914C225.192 140.161 206.383 119.139 201.39 115.963C186.261 106.338 204.599 91.523 204.599 91.523C206.642 79.6324 216.813 79.751 215.902 78.8353C219.365 67.0142 229.443 67.33 230.874 66.6865C231.604 55.3452 241.011 51.6531 248.655 54.0529C251.117 65.3799 247.457 85.4455 295.178 101.235Z" fill="#FC9F9F"/>
<path fill-rule="evenodd" clip-rule="evenodd" d="M224.32 97.1375L193.858 116.229C205.657 138.728 221.384 156.692 238.935 172.552L255.348 153.637C255.348 153.637 268.996 155.148 282.525 148.854C294.892 143.101 301.738 140.589 306.731 137.412C321.86 127.787 314.664 120.927 314.664 120.927C317.961 114.672 315.923 109.696 313.155 104.897C315.471 98.3263 313.793 92.7105 310.975 86.4421C318.291 76.9024 311.63 57.2042 294.447 63.7197C279.86 69.2507 252.205 82.2073 224.32 97.1375Z" fill="#FC9F9F"/>
<path fill-rule="evenodd" clip-rule="evenodd" d="M268.957 89.2915C265.06 94.6283 261.172 98.7418 252.765 97.0801C251.742 104.377 247.917 108.931 239.431 108.92C236.872 114.483 232.22 119.411 223.585 118.898C223.585 118.898 222.659 127.506 210.115 125.284C204.695 124.324 200.214 117.355 196.949 112.66C189.054 101.308 204.6 91.523 204.6 91.523C206.642 79.6324 216.814 79.751 215.903 78.8353C219.366 67.0142 229.444 67.33 230.874 66.6865C231.605 55.3452 241.011 51.6531 248.655 54.0529C255.795 57.5942 272.28 83.5059 268.957 89.2915Z" fill="#FC9F9F"/>
<path fill-rule="evenodd" clip-rule="evenodd" d="M310.626 86.0398L289.43 94.0496C289.367 94.0738 289.308 94.1103 289.258 94.1571C289.208 94.2039 289.168 94.2601 289.14 94.3224C289.112 94.3847 289.096 94.4519 289.094 94.5202C289.092 94.5885 289.103 94.6566 289.128 94.7206C289.152 94.7845 289.188 94.8431 289.235 94.8929C289.282 94.9427 289.338 94.9829 289.4 95.011C289.463 95.0391 289.53 95.0547 289.598 95.0568C289.666 95.059 289.734 95.0477 289.798 95.0235L310.707 87.122C313.312 93.0097 314.841 98.338 312.732 104.523L293.273 112.497C293.209 112.522 293.151 112.56 293.102 112.608C293.053 112.656 293.013 112.714 292.986 112.777C292.959 112.84 292.945 112.908 292.945 112.977C292.944 113.046 292.958 113.114 292.984 113.178C293.01 113.242 293.048 113.299 293.097 113.348C293.145 113.397 293.203 113.436 293.267 113.462C293.33 113.488 293.399 113.501 293.468 113.501C293.536 113.501 293.604 113.487 293.668 113.46L312.936 105.565C315.473 110.046 317.267 114.71 314.29 120.514L298.245 126.828C298.182 126.853 298.123 126.89 298.074 126.938C298.025 126.985 297.986 127.042 297.958 127.104C297.931 127.167 297.916 127.235 297.915 127.303C297.914 127.371 297.926 127.439 297.951 127.503C297.976 127.566 298.014 127.624 298.061 127.674C298.109 127.723 298.165 127.762 298.228 127.789C298.291 127.817 298.358 127.831 298.426 127.833C298.495 127.834 298.563 127.822 298.626 127.797L314.518 121.544C314.957 122.078 315.914 123.485 315.849 125.544C315.76 128.371 313.777 132.312 306.45 136.973C301.47 140.141 294.64 142.644 282.304 148.382C268.912 154.613 255.404 153.12 255.404 153.12C255.32 153.111 255.235 153.122 255.157 153.152C255.078 153.183 255.008 153.232 254.953 153.296L238.54 172.212C238.495 172.263 238.461 172.323 238.439 172.388C238.417 172.453 238.409 172.522 238.413 172.59C238.418 172.658 238.436 172.725 238.467 172.786C238.497 172.848 238.54 172.902 238.591 172.947C238.643 172.992 238.703 173.026 238.768 173.048C238.833 173.069 238.902 173.078 238.97 173.073C239.038 173.068 239.105 173.05 239.166 173.019C239.228 172.988 239.282 172.946 239.327 172.894L255.564 154.181C257.568 154.354 270.206 155.159 282.743 149.326C295.142 143.558 302.003 141.036 307.008 137.852C314.811 132.888 316.794 128.587 316.889 125.577C316.966 123.145 315.825 121.485 315.29 120.845C318.381 114.689 316.5 109.73 313.793 104.966C313.812 104.874 313.806 104.778 313.775 104.689C315.912 98.2426 314.319 92.6741 311.574 86.5088C314.084 83.0548 314.873 78.1761 313.989 73.6761C312.624 66.7243 307.309 60.6943 298.35 62.1494C298.282 62.1604 298.218 62.1845 298.159 62.2205C298.101 62.2564 298.051 62.3035 298.011 62.3589C297.971 62.4144 297.942 62.4772 297.927 62.5437C297.911 62.6102 297.908 62.6792 297.919 62.7467C297.93 62.8142 297.954 62.8788 297.99 62.937C298.026 62.9951 298.073 63.0456 298.129 63.0856C298.184 63.1255 298.247 63.1542 298.314 63.1699C298.38 63.1856 298.449 63.188 298.517 63.1771C306.808 61.8302 311.704 67.4427 312.968 73.8768C313.808 78.1527 313.062 82.7996 310.626 86.0398ZM253.129 96.62C241.68 71.0524 231.092 66.2142 231.092 66.2142C231.03 66.1855 230.963 66.1693 230.894 66.1666C230.826 66.1638 230.758 66.1746 230.694 66.1982C230.564 66.2458 230.459 66.343 230.401 66.4683C230.343 66.5937 230.337 66.7369 230.385 66.8664C230.433 66.996 230.53 67.1013 230.655 67.1592C230.655 67.1592 240.98 71.9831 252.228 97.1551C251.724 100.605 250.575 103.417 248.537 105.364C246.543 107.269 243.703 108.334 239.829 108.397C231.541 92.0322 216.474 78.9392 216.474 78.9392C216.423 78.8935 216.363 78.8585 216.298 78.8362C216.233 78.8138 216.164 78.8046 216.095 78.8091C216.026 78.8136 215.959 78.8316 215.898 78.8621C215.836 78.8927 215.781 78.9352 215.736 78.9871C215.691 79.0391 215.656 79.0994 215.635 79.1648C215.613 79.2301 215.605 79.299 215.61 79.3677C215.615 79.4363 215.634 79.5032 215.665 79.5645C215.696 79.6258 215.739 79.6804 215.792 79.725C215.792 79.725 230.688 92.6655 238.89 108.848C236.456 114.054 232.112 118.653 224.186 118.405C218.957 107.049 205.208 91.0821 205.208 91.0821C205.164 91.0303 205.109 90.9878 205.048 90.957C204.987 90.9263 204.921 90.9078 204.852 90.9027C204.784 90.8977 204.716 90.9061 204.651 90.9275C204.586 90.9489 204.526 90.9828 204.474 91.0274C204.422 91.0721 204.38 91.1264 204.349 91.1875C204.318 91.2485 204.3 91.315 204.295 91.3832C204.29 91.4513 204.298 91.5198 204.319 91.5848C204.341 91.6497 204.375 91.7097 204.419 91.7615C204.419 91.7615 217.888 107.387 223.141 118.625C223.1 118.691 223.075 118.765 223.067 118.842C223.067 118.842 222.746 121.71 219.985 123.564C218.076 124.846 215.033 125.627 210.205 124.772C208.131 124.404 206.209 123.102 204.44 121.402C201.69 118.761 199.318 115.155 197.376 112.363C197.338 112.306 197.288 112.258 197.23 112.22C197.173 112.182 197.108 112.157 197.041 112.144C196.973 112.132 196.903 112.133 196.836 112.147C196.769 112.162 196.705 112.189 196.649 112.229C196.592 112.268 196.544 112.318 196.507 112.376C196.47 112.434 196.445 112.499 196.433 112.567C196.421 112.634 196.423 112.704 196.438 112.771C196.453 112.838 196.482 112.901 196.522 112.957C198.498 115.799 200.919 119.464 203.719 122.153C205.648 124.007 207.762 125.396 210.023 125.797C215.231 126.719 218.506 125.811 220.565 124.428C223.012 122.785 223.786 120.443 224.013 119.44C232.472 119.765 237.142 114.953 239.763 109.439C243.999 109.385 247.084 108.192 249.256 106.117C251.372 104.096 252.626 101.223 253.199 97.6902C261.499 99.1287 265.442 94.9867 269.376 89.5985C269.388 89.5832 269.398 89.5673 269.408 89.551C269.85 88.7806 270 87.6923 269.865 86.3605C269.679 84.5193 268.958 82.1786 267.865 79.5952C264.936 72.6708 259.333 63.9628 254.509 58.5054C252.399 56.1184 250.426 54.3508 248.886 53.5867C248.825 53.5563 248.758 53.5383 248.69 53.5337C248.622 53.529 248.553 53.5379 248.488 53.5597C248.424 53.5816 248.364 53.6159 248.312 53.6609C248.261 53.7059 248.219 53.7605 248.188 53.8218C248.158 53.883 248.14 53.9496 248.135 54.0178C248.131 54.086 248.14 54.1545 248.161 54.2193C248.183 54.2841 248.218 54.3439 248.263 54.3954C248.307 54.4469 248.362 54.489 248.423 54.5194C249.882 55.2425 251.732 56.9354 253.729 59.1949C258.488 64.5789 264.017 73.1694 266.907 80.0008C267.952 82.4706 268.652 84.7049 268.829 86.4651C268.936 87.5203 268.862 88.3908 268.519 89.0077C264.789 94.1121 261.08 98.0896 253.129 96.62Z" fill="black"/>
<path fill-rule="evenodd" clip-rule="evenodd" d="M361.141 129.474C356.38 163.832 333.366 192.39 302.22 205.026L276.276 176.671C296.482 160.753 318.935 134.578 326.853 116.229L361.141 129.474Z" fill="#80BE3D"/>
<path fill-rule="evenodd" clip-rule="evenodd" d="M171.063 126.818L195.601 114.416C203.519 132.765 222.664 154.428 242.87 170.345L219.979 200.09C193.402 185.377 174.543 158.4 171.063 126.818Z" fill="#223B58"/>
</svg>
