<svg width="354" height="290" viewBox="0 0 354 290" fill="none" xmlns="http://www.w3.org/2000/svg">
<path d="M11.3457 133V136" stroke="#D2D8DF" stroke-width="2.921" stroke-linecap="round"/>
<path d="M4.60742 134.625L7.05885 137.149" stroke="#D2D8DF" stroke-width="2.921" stroke-linecap="round"/>
<path d="M1.74023 141.343H5.20652" stroke="#D2D8DF" stroke-width="2.921" stroke-linecap="round"/>
<path d="M4.32617 148.18L6.7776 145.656" stroke="#D2D8DF" stroke-width="2.921" stroke-linecap="round"/>
<path d="M11.3457 149V146" stroke="#D2D8DF" stroke-width="2.921" stroke-linecap="round"/>
<path d="M16.3457 147L14.3457 145" stroke="#D2D8DF" stroke-width="2.921" stroke-linecap="round"/>
<path d="M20.3457 142H17.3457" stroke="#D2D8DF" stroke-width="2.921" stroke-linecap="round"/>
<path d="M18.3457 135L16.3457 137" stroke="#D2D8DF" stroke-width="2.921" stroke-linecap="round"/>
<path d="M172.346 2V4" stroke="#D2D8DF" stroke-width="2.921" stroke-linecap="round"/>
<path d="M166.346 8H168.346" stroke="#D2D8DF" stroke-width="2.921" stroke-linecap="round"/>
<path d="M172.346 14V12" stroke="#D2D8DF" stroke-width="2.921" stroke-linecap="round"/>
<path d="M177.346 8H175.346" stroke="#D2D8DF" stroke-width="2.921" stroke-linecap="round"/>
<path d="M56.3457 86V89" stroke="#D2D8DF" stroke-width="2.921" stroke-linecap="round"/>
<path d="M47.3457 95H50.3457" stroke="#D2D8DF" stroke-width="2.921" stroke-linecap="round"/>
<path d="M56.3457 103V100" stroke="#D2D8DF" stroke-width="2.921" stroke-linecap="round"/>
<path d="M64.3457 95H61.3457" stroke="#D2D8DF" stroke-width="2.921" stroke-linecap="round"/>
<path d="M271.599 195.039C273.989 195.039 275.927 196.978 275.927 199.368C275.927 201.759 273.989 203.697 271.599 203.697C269.21 203.697 267.271 201.759 267.271 199.368" stroke="#D2D8DF" stroke-width="2.921" stroke-linecap="round"/>
<path fill-rule="evenodd" clip-rule="evenodd" d="M291.406 155.763C293.976 154.962 297.915 151.819 298.827 148.438C299.654 151.427 303.12 154.962 306.248 155.229C302.727 156.476 299.361 160.179 298.827 163.088C298.464 160.123 293.808 156.196 291.406 155.763Z" fill="#EBECEE"/>
<path fill-rule="evenodd" clip-rule="evenodd" d="M27.6172 193.705C28.9025 193.305 30.8712 191.734 31.3271 190.043C31.7406 191.537 33.4733 193.305 35.0371 193.439C33.2772 194.061 31.5946 195.913 31.3271 197.368C31.1455 195.885 28.8176 193.921 27.6172 193.705Z" fill="#EBECEE"/>
<path fill-rule="evenodd" clip-rule="evenodd" d="M51.4697 54.597C51.4697 56.4517 49.967 57.9539 48.1137 57.9539C46.2596 57.9539 44.7578 56.4517 44.7578 54.597C44.7578 52.7433 46.2596 51.2402 48.1137 51.2402C49.967 51.2402 51.4697 52.7433 51.4697 54.597Z" fill="#D1D8DF"/>
<path fill-rule="evenodd" clip-rule="evenodd" d="M275.565 63.6105C275.565 66.7092 273.053 69.2211 269.956 69.2211C266.857 69.2211 264.346 66.7092 264.346 63.6105C264.346 60.5119 266.857 58 269.956 58C273.053 58 275.565 60.5119 275.565 63.6105Z" fill="#EBECEE"/>
<path fill-rule="evenodd" clip-rule="evenodd" d="M353.259 48.4095C353.259 50.8679 351.268 52.8601 348.811 52.8601C346.353 52.8601 344.361 50.8679 344.361 48.4095C344.361 45.9512 346.353 43.959 348.811 43.959C351.268 43.959 353.259 45.9512 353.259 48.4095Z" fill="#EBECEE"/>
<path fill-rule="evenodd" clip-rule="evenodd" d="M114.189 256.268C114.189 257.817 112.934 259.073 111.384 259.073C109.836 259.073 108.58 257.817 108.58 256.268C108.58 254.718 109.836 253.462 111.384 253.462C112.934 253.462 114.189 254.718 114.189 256.268Z" stroke="#D2D8DF" stroke-width="2.921" stroke-linecap="round"/>
<path fill-rule="evenodd" clip-rule="evenodd" d="M112.52 33.0316C112.52 34.8862 111.018 36.3884 109.165 36.3884C107.311 36.3884 105.809 34.8862 105.809 33.0316C105.809 31.1779 107.311 29.6748 109.165 29.6748C111.018 29.6748 112.52 31.1779 112.52 33.0316Z" stroke="#D2D8DF" stroke-width="2.921" stroke-linecap="round"/>
<path fill-rule="evenodd" clip-rule="evenodd" d="M198.123 287.336C195.979 288.152 193.579 287.075 192.763 284.93C191.947 282.785 193.024 280.384 195.169 279.569C197.312 278.753 199.713 279.829 200.528 281.974C201.345 284.119 200.268 286.52 198.123 287.336Z" stroke="#D2D8DF" stroke-width="2.921" stroke-linecap="round"/>
<path fill-rule="evenodd" clip-rule="evenodd" d="M196.845 208H114.84C109.068 208 104.344 203.261 104.344 197.47V80.5275C104.344 74.7362 109.068 70 114.84 70H196.845C202.619 70 207.344 74.7362 207.344 80.5275V197.47C207.344 203.261 202.619 208 196.845 208Z" fill="#E0E2EE"/>
<path fill-rule="evenodd" clip-rule="evenodd" d="M189.845 213H107.84C102.068 213 97.3438 208.261 97.3438 202.47V85.5275C97.3438 79.7362 102.068 75 107.84 75H189.845C195.619 75 200.344 79.7362 200.344 85.5275V202.47C200.344 208.261 195.619 213 189.845 213Z" fill="#E8EBF2"/>
<path fill-rule="evenodd" clip-rule="evenodd" d="M183.036 216.947H100.862C95.0781 216.947 90.3438 212.228 90.3438 206.461V90.0025C90.3438 84.2351 95.0781 79.5186 100.862 79.5186H183.036C188.822 79.5186 193.557 84.2351 193.557 90.0025V206.461C193.557 212.228 188.822 216.947 183.036 216.947Z" fill="#D8DBEA"/>
<path fill-rule="evenodd" clip-rule="evenodd" d="M183.036 216.947H100.862C95.0781 216.947 90.3438 212.228 90.3438 206.461V90.0025C90.3438 84.2351 95.0781 79.5186 100.862 79.5186H183.036C188.822 79.5186 193.557 84.2351 193.557 90.0025V206.461C193.557 212.228 188.822 216.947 183.036 216.947Z" fill="#F1F2F7"/>
<path fill-rule="evenodd" clip-rule="evenodd" d="M171.192 115H110.496C108.763 115 107.344 113.65 107.344 112.001C107.344 110.35 108.763 109 110.496 109H171.192C172.925 109 174.344 110.35 174.344 112.001C174.344 113.65 172.925 115 171.192 115Z" fill="#E0E2EE"/>
<path fill-rule="evenodd" clip-rule="evenodd" d="M171.192 133H110.496C108.763 133 107.344 131.65 107.344 130.001C107.344 128.35 108.763 127 110.496 127H171.192C172.925 127 174.344 128.35 174.344 130.001C174.344 131.65 172.925 133 171.192 133Z" fill="#E0E2EE"/>
<path fill-rule="evenodd" clip-rule="evenodd" d="M171.192 151H110.496C108.763 151 107.344 149.65 107.344 148.001C107.344 146.352 108.763 145 110.496 145H171.192C172.925 145 174.344 146.352 174.344 148.001C174.344 149.65 172.925 151 171.192 151Z" fill="#E0E2EE"/>
<path fill-rule="evenodd" clip-rule="evenodd" d="M171.192 169H110.496C108.763 169 107.344 167.65 107.344 166.001C107.344 164.35 108.763 163 110.496 163H171.192C172.925 163 174.344 164.35 174.344 166.001C174.344 167.65 172.925 169 171.192 169Z" fill="#E0E2EE"/>
<path fill-rule="evenodd" clip-rule="evenodd" d="M142.178 187H110.509C108.769 187 107.344 185.65 107.344 184.001C107.344 182.35 108.769 181 110.509 181H142.178C143.919 181 145.344 182.35 145.344 184.001C145.344 185.65 143.919 187 142.178 187Z" fill="#E0E2EE"/>
<path fill-rule="evenodd" clip-rule="evenodd" d="M206.099 163.737C193.962 175.871 175.173 177.24 161.532 167.872C159.789 166.653 158.13 165.284 156.582 163.737C155.786 162.943 155.035 162.124 154.327 161.261C152.913 159.538 151.673 157.701 150.658 155.803C148.869 152.597 147.652 149.195 146.988 145.679C144.845 134.651 148.049 122.781 156.582 114.252C165.136 105.697 177.008 102.514 188.037 104.636C191.552 105.321 194.957 106.537 198.164 108.305C200.065 109.343 201.877 110.583 203.602 111.997C204.462 112.702 205.282 113.455 206.076 114.252C207.626 115.799 209.015 117.455 210.211 119.201C219.584 132.837 218.213 151.625 206.099 163.737Z" fill="white" fill-opacity="0.1"/>
<path fill-rule="evenodd" clip-rule="evenodd" d="M202.703 161.347C190.076 173.976 169.614 173.973 156.985 161.347C144.372 148.734 144.372 128.27 157.001 115.643C169.614 103.03 190.076 103.03 202.688 115.643C215.315 128.27 215.315 148.734 202.703 161.347ZM209.183 109.156C192.975 92.9482 166.712 92.9482 150.505 109.156C134.3 125.361 134.285 151.64 150.49 167.848C165.241 182.594 188.361 183.924 204.622 171.816C206.21 170.632 207.74 169.305 209.199 167.848C210.656 166.389 211.983 164.859 213.165 163.271C225.273 147.007 223.931 123.904 209.183 109.156Z" fill="#E0E2EE"/>
<path fill-rule="evenodd" clip-rule="evenodd" d="M272.966 228.942L272.285 229.622C267.784 234.126 260.412 234.126 255.909 229.622L214.344 188.057L231.401 171L272.966 212.565C277.47 217.069 277.47 224.438 272.966 228.942Z" fill="url(#paint0_linear_2057_2819)"/>
<path fill-rule="evenodd" clip-rule="evenodd" d="M214.061 162L226.344 174.283L217.624 183L205.344 170.717C206.964 169.509 208.523 168.154 210.014 166.668C211.501 165.182 212.855 163.621 214.061 162Z" fill="#87C752"/>
<path fill-rule="evenodd" clip-rule="evenodd" d="M272.344 212.054L255.395 229L252.344 225.946L269.29 209L272.344 212.054Z" fill="#223B58"/>
<path fill-rule="evenodd" clip-rule="evenodd" d="M232.344 171.587L214.931 189L212.344 186.413L229.757 169L232.344 171.587Z" fill="url(#paint1_linear_2057_2819)"/>
<path fill-rule="evenodd" clip-rule="evenodd" d="M194.344 111.299L151.64 154C150.032 151.118 148.939 148.059 148.344 144.898L185.241 108C188.4 108.618 191.461 109.709 194.344 111.299Z" fill="white" fill-opacity="0.5"/>
<path fill-rule="evenodd" clip-rule="evenodd" d="M208.344 121.448L162.177 165C160.523 163.912 158.95 162.687 157.482 161.302C156.727 160.59 156.012 159.859 155.344 159.087L202.073 115C202.891 115.633 203.669 116.307 204.422 117.02C205.889 118.404 207.209 119.886 208.344 121.448Z" fill="white" fill-opacity="0.5"/>
<defs>
<linearGradient id="paint0_linear_2057_2819" x1="245.344" y1="140" x2="183.344" y2="202" gradientUnits="userSpaceOnUse">
<stop stop-color="#87C752"/>
</linearGradient>
<linearGradient id="paint1_linear_2057_2819" x1="222.344" y1="159" x2="202.344" y2="179" gradientUnits="userSpaceOnUse">
<stop stop-color="#223B58"/>
<stop offset="1" stop-color="#FF62A5"/>
</linearGradient>
</defs>
</svg>
